<?xml version="1.0" encoding="UTF-8"?>
<svg id="Layer_1" data-name="Layer 1" xmlns="http://www.w3.org/2000/svg" viewBox="0 0 311.37 241.42">
  <defs>
    <style>
      .cls-1 {
        fill: #e9d099;
      }
    </style>
  </defs>
  <path class="cls-1" d="M290.59,91.77c-1.81-1.16-3.46-2.57-4.78-4.24-1.34-1.65-2.32-3.59-3.4-5.47-1.06-1.89-2.12-3.8-3.42-5.59-1.29-1.79-2.89-3.44-4.82-4.62-1.92-1.2-4.1-1.93-6.3-2.31-2.2-.39-4.43-.49-6.63-.44-1.41.04-2.8.15-4.19.29,1.41-1.46,3.08-2.72,4.86-3.71,2.35-1.29,4.95-2.13,7.63-2.39,1.34-.14,2.69-.14,4.04-.01,1.34.13,2.7.36,4.05.51,1.36.16,2.72.27,4.09.3.68.02,1.37,0,2.05-.07.34-.04.68-.1,1.01-.19.3-.11.71-.23.79-.58-.1.34-.5.45-.8.54-.33.08-.67.12-1.01.15-.68.04-1.36.04-2.04,0-1.36-.08-2.71-.24-4.06-.45-1.35-.19-2.68-.48-4.05-.65-1.37-.17-2.75-.21-4.13-.1-2.76.19-5.48.98-7.95,2.25-2.22,1.17-4.24,2.67-5.95,4.57-.3.04-.61.07-.91.12-1.11.15-2.12.28-3.18.39-1.05.07-2.1.13-3.16.11-4.22-.02-8.41-.85-12.38-2.28-.96-.34-1.91-.72-2.85-1.13,1.31-.1,2.61-.24,3.92-.43,2.86-.45,5.73-1.16,8.37-2.48.65-.34,1.29-.71,1.89-1.14l1.74-1.22c1.18-.79,2.38-1.53,3.63-2.2,2.5-1.3,5.15-2.46,7.98-2.88-2.86.24-5.6,1.24-8.21,2.4-1.31.6-2.58,1.28-3.82,2l-1.84,1.12c-.58.37-1.2.68-1.83.96-2.55,1.1-5.33,1.62-8.11,1.9-2.48.23-5.02.27-7.49.12-.35-.19-.68-.39-1.03-.58-2.07-1.75-4.28-3.36-6.66-4.77-.66-.42-1.31-.82-1.95-1.22-.65-.55-1.3-1.11-1.92-1.68.89-.04,1.77-.13,2.65-.29,1.47-.28,2.91-.74,4.25-1.39,1.28-.62,2.47-1.19,3.77-1.66,2.54-.95,5.23-1.53,7.93-1.39,2.71.1,5.35,1.01,7.97,1.99,1.32.47,2.66.94,4.06,1.19,1.39.27,2.82.27,4.2.03-1.39.14-2.8.04-4.14-.32-1.35-.34-2.62-.88-3.9-1.45-2.53-1.15-5.19-2.3-8.09-2.62-2.89-.36-5.83.07-8.58.88-1.38.38-2.75.94-4.03,1.44-1.22.47-2.5.77-3.79.91-2.59.28-5.21-.12-7.72-.93-.36-.12-.71-.26-1.07-.39-.21-.16-.43-.31-.64-.48-5.73-4.31-11.13-9.07-16.28-14.11,1.71.43,3.44.75,5.19.97,2.57.3,5.16.36,7.73.16,1.55.6,3.1,1.33,4.53,2.2,1.5.92,2.96,1.97,4.03,3.35,1.05,1.47,2.44,2.77,4.04,3.63,1.59.87,3.46,1.33,5.24.97-1.8.26-3.6-.3-5.1-1.23-1.52-.93-2.75-2.22-3.72-3.73-1.09-1.52-2.56-2.66-4.07-3.67-.97-.64-1.98-1.2-3.02-1.72.58-.08,1.15-.16,1.72-.27l2.77-.51c.45-.08.91-.17,1.36-.23l1.38-.1.69-.05.69.02c.46.02.92.02,1.38.05.91.12,1.84.21,2.73.47,3.57.89,6.9,3.07,8.97,6.21-1.93-3.23-5.2-5.62-8.84-6.7-.91-.31-1.85-.44-2.79-.61-.47-.05-.95-.08-1.43-.11l-.72-.05-.72.02-1.43.04c-.47.04-.95.12-1.42.17l-2.79.38c-3.67.51-7.4.39-11.03-.2-.39-.07-.78-.16-1.17-.24.79-.34,1.55-.75,2.27-1.25.71-.5,1.38-1.07,1.95-1.73.56-.65,1.03-1.45,1.42-2.15.85-1.41,1.96-2.69,3.34-3.62,1.37-.92,3.03-1.51,4.72-1.37-1.68-.23-3.41.27-4.86,1.14-1.47.88-2.7,2.13-3.66,3.55-.48.74-.89,1.39-1.46,1.99-.56.59-1.2,1.09-1.89,1.53-1.12.7-2.39,1.2-3.66,1.51-1.84-.45-3.64-1.05-5.35-1.77-.22-.22-.44-.45-.66-.67-3.07-3.23-6.09-6.51-8.97-9.91-1.44-1.7-2.86-3.41-4.24-5.15-.69-.87-1.37-1.74-2.04-2.61-.03-.04-.07-.09-.1-.13-.03-.67-.06-1.35-.07-2.02l-.05-1.66.02-1.64c0-1.1.06-2.17.1-3.25.03-.53.08-1.05.12-1.57,0-.01,0-.03,0-.04h-12.54c-.01.42-.03.84-.02,1.24,0,.66.01,1.32.02,1.98-1.51,2.57-3.11,5.16-4.71,7.7-1.14,1.78-2.27,3.57-3.45,5.32l-1.75,2.65-1.71,2.5c-.36.03-.71.08-1.06.13-1.37.21-2.7.59-3.95,1.12-1.32.55-2.54,1.27-3.67,2.11-.73-.09-1.45-.18-2.19-.25-.62-.06-1.25-.11-1.88-.16-.4-.19-.8-.41-1.21-.63-.83-.47-1.66-.98-2.49-1.5-1.68-1.04-3.22-2.15-5-3.21-1-.49-1.99-.66-2.99-.8-1-.12-2.01-.15-3.01-.06-1.97.18-4.05.82-5.32,2.37,1.4-1.43,3.45-1.85,5.34-1.87.96,0,1.93.1,2.86.3.92.2,1.88.48,2.61.93,1.51,1.09,3.07,2.4,4.64,3.57.31.24.64.46.95.69-1.41-.04-2.83-.05-4.25,0-3.25.13-6.53.48-9.72,1.4-1.15.33-2.3.74-3.4,1.26-2.24-.95-4.67-1.33-7.05-.91-.72.11-1.41.32-2.07.59l-.02-.03s-.06.05-.09.08c-1.74.74-3.26,1.96-4.44,3.38-1.61,1.96-3.55,3.65-5.75,4.94-2.21,1.25-4.66,2.17-7.22,2.35,2.57-.1,5.07-.93,7.35-2.13,2.27-1.23,4.3-2.89,6.01-4.83.65-.72,1.38-1.37,2.17-1.93-.08.08-.16.16-.23.24-.67.76-1.3,1.55-1.81,2.42-.51.87-.94,1.8-1.17,2.78-.22.99-.24,2-.04,2.98-.14-.99-.05-1.99.22-2.93.29-.94.76-1.81,1.31-2.62.55-.81,1.21-1.55,1.9-2.23.7-.68,1.45-1.33,2.24-1.88h0c.57-.21,1.17-.36,1.78-.43,1.94-.29,3.97.04,5.79.75-.03.02-.06.03-.08.04-.73.42-1.44.88-2.09,1.43-.66.52-1.28,1.17-1.81,1.73-3.7,3.96-7.63,7.73-11.99,10.94l-.03-.05c-.21.16-.4.34-.59.5-.55.39-1.1.78-1.66,1.15-5.25,3.49-11.34,6.11-17.78,6.11,3.2.12,6.41-.4,9.47-1.39.85-.27,1.68-.58,2.5-.92-.75.59-1.47,1.22-2.14,1.9-.7.71-1.32,1.51-1.77,2.4-.45.88-.7,1.91-.45,2.89-.2-.99.09-1.98.57-2.83.49-.85,1.12-1.61,1.84-2.28,1.31-1.23,2.81-2.28,4.37-3.17.92-.45,1.81-.93,2.7-1.43-.17.21-.35.43-.51.65-.97,1.32-1.76,2.93-1.63,4.58.05-1.66.97-3.09,2.03-4.27.53-.6,1.12-1.15,1.73-1.66.61-.51,1.27-1,1.92-1.41l-.05-.07c2.73-1.85,5.31-3.91,7.78-6.09-.75,1.24-1.46,2.5-2.12,3.78-.7,1.39-1.34,2.82-1.84,4.29-.49,1.46-.86,3.05-.57,4.58-.21-1.55.25-3.08.81-4.5.58-1.43,1.28-2.8,2.05-4.13,1.32-2.25,2.79-4.41,4.36-6.48.71-.67,1.42-1.35,2.12-2.04,2.12-2.25,4.91-3.56,7.92-4.27,1.68-.41,3.4-.65,5.14-.79-.2.18-.39.35-.59.53-1.06,1-2.05,2.07-2.92,3.22-.39.51-.76,1.04-1.11,1.57l-.06-.05c-1.05,1.35-2.25,2.63-3.57,3.73-.67.54-1.39,1.03-2.17,1.38-.77.35-1.69.54-2.51.16.78.44,1.76.32,2.58.02.83-.3,1.6-.76,2.33-1.26.7-.5,1.37-1.05,2.01-1.62-.62,1.15-1.11,2.36-1.57,3.57.66-1.26,1.34-2.49,2.17-3.63.79-1.16,1.71-2.22,2.68-3.21.96-1,2.02-1.9,3.13-2.72.95-.7,1.98-1.35,2.99-1.85.25,0,.49-.01.74-.01,3.07.03,6.16.29,9.23.71-.05.06-.11.11-.16.17-.92,1.02-1.73,2.11-2.45,3.25-.49-.03-.99-.06-1.48-.06-1.3.02-2.61.12-3.86.48-1.25.35-2.44.92-3.44,1.73,1.05-.75,2.25-1.22,3.5-1.49,1.24-.27,2.53-.28,3.79-.22.39.02.77.07,1.15.12-.52.87-1.01,1.75-1.44,2.65,0,0,0,.01,0,.02-.55.29-1.09.59-1.64.89l-2.91,1.58c-1,.52-1.95,1.1-2.9,1.69-3.82,2.34-7.41,5.01-10.76,7.96-3.34,2.96-6.45,6.15-9.24,9.63-.23.29-.45.59-.68.88-1.07-.57-2.15-1.06-3.28-1.49-1.62-.6-3.32-1.06-5.07-1.23-1.75-.18-3.57-.02-5.25.62-1.61.62-2.99,1.71-4.03,3.03-.76.21-1.67.29-2.53.27-.91-.02-1.82-.16-2.71-.37-.89-.24-1.77-.54-2.61-.94-.85-.39-1.65-.87-2.44-1.38.74.58,1.5,1.13,2.32,1.6.81.48,1.68.87,2.58,1.2.9.31,1.84.53,2.8.65.31.03.62.05.93.07-.58.34-1.17.67-1.77.98-1.17.57-2.41,1.16-3.65,1.2-.79.01-1.41.46-1.91.91-.51.47-.93.99-1.33,1.54-.78,1.1-1.43,2.27-2,3.48.64-1.17,1.36-2.3,2.19-3.34.42-.51.87-1,1.37-1.41.5-.4,1.09-.74,1.66-.7.73.04,1.41-.13,2.06-.32.66-.2,1.29-.44,1.91-.71,1.19-.52,2.33-1.11,3.45-1.77.01,0,.03,0,.04,0h0s.08-.06.12-.08l.05-.03.06-.07c1.04-1.22,2.35-2.15,3.84-2.63.26-.08.52-.13.78-.19-.4.28-.81.56-1.2.87-1.08.87-2.06,1.85-2.91,2.94-.84,1.1-1.5,2.33-1.94,3.63-.46,1.31-.53,2.69-.48,4.04.04-1.36.2-2.71.72-3.96.51-1.24,1.22-2.39,2.09-3.4.88-1,1.89-1.88,2.98-2.66.92-.64,1.9-1.23,2.9-1.7.57,0,1.14.03,1.71.12,1.57.23,3.11.73,4.59,1.37.93.41,1.86.89,2.74,1.41-.05.07-.11.14-.17.22-.33.46-.66.91-.97,1.39l-.48.72c-.15.24-.31.48-.51.84-.1.14.04-.08-.02.02l-.19.23-.06.06c-.53-.02-1.07-.03-1.6-.02-1.23.04-2.46.18-3.66.43-1.2.26-2.36.68-3.46,1.23-1.09.55-2.06,1.32-2.92,2.17.92-.79,1.92-1.47,3.03-1.94,1.11-.46,2.26-.78,3.44-.96,1.18-.17,2.37-.22,3.56-.17.27.01.55.05.82.07-.24.24-.49.49-.74.73-.76.71-1.55,1.41-2.35,2.09-2.28,1.94-4.69,3.75-7.17,5.47-1.81-.79-3.65-1.46-5.52-2.05-2.45-.75-4.94-1.37-7.48-1.7-2.54-.32-5.11-.43-7.65-.13-2.53.34-5,1.1-7.23,2.34,2.27-1.16,4.74-1.83,7.25-2.09,2.52-.22,5.06-.02,7.54.38,2.49.4,4.93,1.1,7.31,1.92,1.64.58,3.26,1.23,4.84,1.95-.72.49-1.44.97-2.17,1.44-1.37.89-2.77,1.72-4.19,2.54-5.11.03-10.08.72-14.99,1.86-1.9-1.01-3.91-1.65-6-1.95-2.28-.33-4.64-.18-6.85.48-2.25.63-4.11,1.98-6.2,2.79-1.03.45-2.1.8-3.2,1.02-.55.1-1.11.16-1.67.11-.54-.05-1.15-.18-1.5-.64.34.47.95.63,1.5.71.57.07,1.14.04,1.7-.04,1.12-.17,2.23-.48,3.29-.89,2.16-.74,4.09-2.01,6.24-2.53,2.14-.57,4.4-.63,6.58-.24,1.62.29,3.24.81,4.71,1.53-5.04,1.3-9.93,3.17-14.5,5.64-2.47,1.34-4.84,2.85-7.07,4.54l-3.35,2.47c-1.14.79-2.26,1.61-3.42,2.38-2.3,1.56-4.66,3.02-7.12,4.32-1.22.66-2.49,1.23-3.78,1.73-.65.24-1.31.45-1.99.61-.67.13-1.38.28-2.06.09.67.21,1.39.08,2.07-.03.69-.13,1.36-.33,2.02-.55,1.31-.47,2.61-1,3.85-1.63,2.5-1.23,4.92-2.63,7.27-4.13,1.19-.73,2.33-1.53,3.5-2.29l3.44-2.38c2.26-1.6,4.64-3.01,7.1-4.25.37-.19.75-.36,1.12-.54-.71.79-1.36,1.62-1.95,2.51-1.16,1.74-2.02,3.8-2.13,5.9-.19,1.98-1.21,3.84-2.45,5.45-1.26,1.61-2.76,3.05-4.41,4.28,1.71-1.15,3.29-2.52,4.64-4.09,1.33-1.57,2.48-3.43,2.8-5.57.18-2.03,1.04-3.88,2.21-5.52,1.11-1.56,2.49-2.98,3.98-4.16,3.8-1.59,7.76-2.79,11.79-3.61,3.79-.77,7.67-1.26,11.52-1.38-.27.17-.55.34-.82.52-.94.6-1.85,1.23-2.74,1.88-3.59,2.58-6.91,5.48-10.04,8.56-1.56,1.54-3.07,3.13-4.52,4.79-1.45,1.66-2.84,3.35-4.12,5.18-.31.48-.64.91-.93,1.42l-.82,1.36c-.21.31-.44.62-.68.92h-.01s-.04.07-.06.1c-.36.46-.74.92-1.15,1.35-1.42,1.52-3.05,2.91-4.7,4.28-3.31,2.72-6.85,5.38-9.85,8.59-2.4,2.52-4.59,5.21-6.66,7.97-1.3,1.37-2.71,2.65-4.19,3.82-2.09,1.63-4.38,3.07-6.91,3.87-1.25.4-2.6.55-3.92.89-1.32.32-2.61.74-3.86,1.25-2.5,1.02-4.9,2.31-7.05,3.92,2.2-1.55,4.63-2.76,7.14-3.69,1.26-.47,2.55-.84,3.85-1.12,1.29-.3,2.65-.39,3.98-.78,2.64-.75,5.03-2.15,7.23-3.75.4-.3.79-.61,1.18-.92-.93,1.33-1.85,2.66-2.75,4.01-1.19,1.79-2.5,3.47-3.96,5.05-2.9,3.18-6.21,5.98-9.38,8.94-1.56,1.5-3.17,3-4.3,4.89-.54.95-.99,1.93-1.4,2.94-.2.51-.38,1.02-.51,1.54-.12.52-.26,1.07-.15,1.61-.09-.54.06-1.08.2-1.59.15-.52.35-1.02.56-1.52.43-.99.92-1.96,1.47-2.88,1.15-1.81,2.8-3.26,4.39-4.7,3.24-2.86,6.64-5.56,9.67-8.7,1.52-1.56,2.94-3.26,4.19-5.04,1.25-1.76,2.53-3.5,3.84-5.22,2.62-3.42,5.39-6.74,8.43-9.75.06-.06.13-.12.19-.18-.14.25-.3.49-.43.74-.63,1.22-1.19,2.5-1.48,3.85-.29,1.33-.26,2.84.54,3.98-.72-1.19-.65-2.65-.29-3.92.36-1.3.98-2.51,1.67-3.66.63-1.02,1.34-2,2.08-2.95,2.43-2.12,5.06-4.02,7.67-6.04.6-.47,1.2-.95,1.79-1.43-.71,1.66-1.35,3.34-1.87,5.08-.24.8-.45,1.61-.63,2.43-1.66,2.72-3.51,5.36-5.48,7.9-2.16,2.77-4.5,5.41-7.03,7.86-.73.31-1.55.5-2.36.55-.84.05-1.7-.07-2.49-.4.75.41,1.62.63,2.49.66.55.02,1.09-.02,1.63-.12-1.11,1.02-2.26,2.02-3.3,3.14-1.15,1.22-2.18,2.56-3.03,4h0c-1.31,1.66-2.73,3.26-4.26,4.73-.76.74-1.57,1.44-2.42,2.07-.86.62-1.76,1.21-2.79,1.51,1.03-.28,1.96-.85,2.83-1.46.87-.62,1.69-1.3,2.47-2.03,1.28-1.19,2.47-2.48,3.61-3.8-.71,1.38-1.25,2.84-1.49,4.37-.14.89-.17,1.8-.04,2.69.07.44.18.89.37,1.29.19.4.47.81.9.95-.43-.15-.7-.57-.88-.96-.18-.41-.28-.85-.34-1.29-.11-.89-.06-1.79.1-2.66.32-1.76,1.03-3.43,1.94-4.95.91-1.53,2.04-2.93,3.29-4.19,1.24-1.27,2.65-2.38,3.99-3.6.92-.84,1.81-1.72,2.68-2.61-.28.44-.57.88-.84,1.33-.74,1.25-1.44,2.52-1.99,3.87-.27.67-.5,1.37-.62,2.09-.11.71-.1,1.49.29,2.11-.37-.64-.34-1.4-.2-2.09.15-.7.41-1.38.7-2.03.59-1.31,1.34-2.54,2.13-3.74,1.19-1.78,2.49-3.5,3.85-5.15.31-.37.63-.73.93-1.1.16-.19.32-.38.49-.57h0c1.54-1.9,3.01-3.84,4.39-5.85-.04.31-.09.63-.13.94-.1,1-.15,2-.13,3,.03,1.02.12,1.96.18,2.94.06.88.12,1.76.17,2.64h-.06c.02-.07-.04.1-.08.16-.05.09-.1.18-.17.28-.12.19-.26.37-.41.56-.3.37-.63.72-.97,1.06-.69.69-1.41,1.34-2.2,1.9-.78.58-1.65,1.09-2.43,1.78-.78.69-1.38,1.63-1.62,2.63-.29.99-.23,2.05-.42,2.96-.21.93-.72,1.79-1.39,2.5-1.35,1.42-3.15,2.39-5.02,3.03,1.89-.56,3.74-1.45,5.2-2.86.72-.7,1.31-1.58,1.58-2.58.25-1.03.22-1.99.54-2.91.27-.92.82-1.7,1.55-2.3.73-.6,1.6-1.07,2.44-1.64.85-.56,1.64-1.21,2.38-1.89.38-.34.74-.7,1.09-1.09.03-.03.05-.07.08-.1.12,2.48.15,4.95-.09,7.42-.35,3.81-1.56,7.66-4.12,10.63,2.71-2.83,4.16-6.69,4.71-10.55.58-3.89.5-7.82.44-11.71-.01-.96-.05-1.97-.04-2.89,0-.02,0-.05,0-.07.11.07.23.15.34.22h-.01c.26.19.52.36.79.51.68.48,1.35.99,2.01,1.51,1.29,1.04,2.55,2.13,3.69,3.34,1.14,1.21,2.21,2.48,3.1,3.89.87,1.41,1.58,2.94,1.97,4.57-.31-1.65-.94-3.23-1.75-4.7-.82-1.47-1.85-2.82-2.94-4.11-.98-1.15-2.07-2.2-3.18-3.22.88.28,1.8.47,2.73.51,1.15.03,2.3-.2,3.32-.72,1.05-.47,1.81-1.35,2.51-2.19-.77.79-1.58,1.59-2.62,1.96-1.01.41-2.1.55-3.17.44-1.07-.13-2.11-.47-3.09-.92-.97-.45-1.92-1.03-2.73-1.68l-.04.05c-.28-.21-.56-.42-.85-.63.04-.53.1-1.07.18-1.6.29-1.87.77-3.71,1.4-5.5,1.1-3.14,2.6-6.19,4.32-9.01-.02.3-.04.6-.05.9-.05,2.03.16,4.07.68,6.04.29,1.12.74,2.19,1.29,3.19.29,1.09.43,2.27.25,3.4-.1.6-.29,1.19-.62,1.71-.34.52-.82.92-1.36,1.23.56-.27,1.08-.65,1.47-1.16.37-.52.62-1.12.76-1.74.15-.62.18-1.26.17-1.9,0-.16-.02-.31-.03-.47.25.38.51.75.78,1.1l.98,1.14,1.13.98c.36.35.78.61,1.2.87l1.25.79-1.18-.89c-.4-.29-.78-.59-1.11-.96l-1.02-1.05-.85-1.18c-1.05-1.62-1.81-3.41-2.13-5.31,0-.03,0-.06-.01-.09.51.54,1.12,1.01,1.82,1.3.7.31,1.5.39,2.23.24.74-.1,1.4-.45,2.03-.79-.67.28-1.35.53-2.06.54-.7.05-1.4-.11-1.98-.45-.59-.33-1.09-.82-1.49-1.36-.31-.42-.56-.9-.76-1.38-.08-1.24-.06-2.48.08-3.72.19-1.69.57-3.4,1.1-4.97.19-.27.38-.53.57-.8,1.25-1.69,2.66-3.3,4.1-4.86,1.45-1.57,2.96-3.07,4.52-4.53,1.3-1.21,2.64-2.37,4-3.5-.08.19-.17.37-.26.56-.9,2.14-1.61,4.37-2.01,6.66-.43,2.32-.5,4.72-.2,7.07-.06,1.01-.16,2.04-.32,3.05-.21,1.3-.51,2.59-.95,3.84-.44,1.24-.97,2.46-1.78,3.51-.79,1.05-1.81,1.95-3.04,2.48,1.27-.45,2.37-1.29,3.24-2.32.89-1.03,1.52-2.25,2.05-3.49.53-1.25.92-2.55,1.22-3.87.04-.17.06-.35.1-.52.28,1.05.64,2.08,1.08,3.07.25,1.05.41,2.11.42,3.17.07,1.82-.47,3.76-1.98,4.81-.8.56-1.52,1.38-1.79,2.34-.31.96-.26,1.96-.12,2.91.31,1.91,1.06,3.7,2,5.37-.86-1.7-1.53-3.52-1.75-5.4-.1-.93-.09-1.9.23-2.76.3-.88.93-1.53,1.71-2.04.88-.52,1.5-1.39,1.89-2.31.4-.93.54-1.93.57-2.92,0-.3-.01-.6-.02-.91.3.51.6,1.01.9,1.51l1.74,2.91c.89,1.5,1.76,3.01,2.6,4.54-1.48,1.66-2.88,3.38-4.15,5.21-3.06,4.37-5.4,9.24-6.97,14.3-1.57,5.07-2.42,10.3-2.75,15.54-.06,2.61-.13,5.27-.11,7.81,0,1.28.02,2.57,0,3.85l-.1,3.85c-.43,10.23-1.65,20.53-5,30.24-1.69,4.83-3.96,9.49-7.13,13.53-1.59,2.01-3.42,3.84-5.48,5.36-2.08,1.48-4.4,2.74-6.95,3.22,2.56-.39,4.94-1.59,7.09-3.02,2.14-1.47,4.05-3.27,5.72-5.25,3.34-3.99,5.81-8.66,7.68-13.5,3.71-9.74,5.28-20.14,6.05-30.48l.23-3.89c.07-1.3.09-2.59.13-3.89.06-2.62.21-5.12.35-7.66.48-5.05,1.46-10.04,3.1-14.78,1.45-4.19,3.44-8.18,5.95-11.81.06.11.12.22.17.34.44.86.79,1.79,1.14,2.72.31.95.65,1.89.89,2.87l.39,1.46.31,1.49c.81,3.98,1.27,8.06,1.44,12.17.08,1.03.07,2.06.09,3.09l.04,3.09c-.07,2.06-.08,4.13-.19,6.19-.15,2.06-.25,4.13-.43,6.19l-.63,6.18,1.02-6.14c.32-2.05.55-4.11.83-6.17.24-2.06.39-4.14.59-6.21l.16-3.12c.05-1.04.12-2.08.11-3.13.09-4.18-.11-8.37-.69-12.56l-.23-1.57-.31-1.56c-.19-1.05-.48-2.08-.75-3.12-.31-1.03-.63-2.07-1.07-3.09-.19-.51-.45-1.02-.69-1.53-.06-.11-.11-.21-.17-.31.67-.84,1.38-1.65,2.1-2.45.6,1.33,1.09,2.71,1.33,4.15.42,2.21.08,4.5-.47,6.68.63-2.16,1.07-4.45.73-6.72-.19-1.55-.68-3.03-1.27-4.46.06-.06.12-.13.18-.19.42.54.85,1.08,1.29,1.6.75.87,1.56,1.7,2.43,2.45.17.15.36.29.54.44.41,5.05.97,10.08,1.71,15.08-.5-4.85-.83-9.72-1.03-14.58.53.36,1.09.66,1.71.84-.63-.21-1.19-.54-1.71-.93-.12-3.15-.2-6.29-.2-9.44.09-.08.18-.15.28-.23.03.07.07.14.1.21.51,1.23.76,2.61.46,3.93.35-1.31.15-2.72-.32-3.99-.03-.09-.08-.17-.11-.25.58-.49,1.17-.99,1.77-1.46.7-.55,1.41-1.07,2.12-1.59.39.98.85,1.92,1.37,2.83.05.09.11.17.16.26-.3,5-.35,10-.2,14.99.25,8.59,1.05,17.14,2.22,25.62.14,1.02.29,2.04.44,3.06-.53,1.58-1.05,3.17-1.52,4.77-1.51,5.22-2.62,10.6-2.83,16.05-.21,5.43.58,10.94,2.65,15.96-1.96-5.07-2.6-10.56-2.26-15.94.33-5.4,1.56-10.69,3.19-15.84.33-1.05.69-2.08,1.06-3.11,1.07,6.81,2.36,13.59,3.98,20.28-1.47-7.27-2.55-14.61-3.38-21.97,3.14-8.55,7.13-16.79,10.94-25.1.74-1.56,1.42-3.18,2.07-4.83.52-.59,1.01-1.21,1.44-1.87,1.28-1.82,2.06-3.91,3.46-5.55.79-.98,1.73-1.82,2.74-2.56-.06,1.69-.06,3.37.04,5.05.03.63.07,1.27.12,1.9-.52.95-1.02,1.9-1.49,2.87-1.17,2.46-2.17,5.01-2.95,7.61l-1.22,3.86c-.44,1.27-.85,2.56-1.32,3.82-.91,2.54-1.93,5.04-3.11,7.46-.58,1.22-1.25,2.39-1.97,3.52-.38.56-.77,1.11-1.21,1.61-.45.49-.93,1.01-1.56,1.25.65-.22,1.14-.73,1.61-1.21.46-.5.88-1.03,1.27-1.59.76-1.12,1.47-2.28,2.09-3.48,1.26-2.4,2.36-4.88,3.35-7.4.51-1.25.96-2.53,1.44-3.8l1.34-3.84c.86-2.54,1.92-5.01,3.15-7.39.17-.34.36-.67.54-1-.1,1-.14,2.01-.09,3.02.09,2.03.58,4.14,1.71,5.86.98,1.67,1.25,3.7,1.2,5.68-.06,1.99-.42,3.97-1.01,5.88.69-1.88,1.14-3.86,1.3-5.87.04-.49.05-.99.05-1.49.68,2.19,1.44,4.36,2.28,6.49,1.04,2.53,1.97,4.95,2.94,7.41.09.21.16.42.25.64-.51,2.08-.96,4.18-1.22,6.32-.45,3.36-.62,6.73-.67,10.1-.24,1.81-.6,3.61-1.09,5.37-.71,2.48-1.68,4.92-3.2,6.99-.75,1.03-1.73,1.92-2.56,2.94-.85,1.01-1.62,2.07-2.31,3.19-1.38,2.23-2.52,4.61-3.29,7.12.85-2.47,2.06-4.81,3.5-6.98.72-1.08,1.52-2.11,2.39-3.08.85-.97,1.85-1.82,2.68-2.88,1.65-2.1,2.72-4.57,3.53-7.08.14-.43.25-.87.38-1.31.03,1.54.07,3.09.13,4.63.09,2.09.02,4.15-.22,6.23-.45,4.16-1.45,8.25-2.24,12.38-.37,2.07-.78,4.17-.58,6.3.12,1.05.33,2.08.58,3.11.13.51.28,1.02.48,1.51.2.48.41.99.8,1.35-.38-.37-.57-.88-.75-1.37-.18-.49-.31-1-.43-1.51-.22-1.02-.4-2.06-.49-3.1-.13-2.08.34-4.16.76-6.2.91-4.1,2.04-8.16,2.62-12.36.31-2.09.45-4.24.41-6.35-.02-2.1-.02-4.2.03-6.29.11-4.19.38-8.37,1.05-12.47,0-.06.02-.11.03-.16.03.25.04.49.08.74.2,1.32.49,2.64,1.05,3.87.53,1.19,1.39,2.34,2.64,2.79l.17.74c.26,1.29.42,2.6.64,3.9l.2,1.29c-.33.44-.7.86-1.13,1.22-.63.52-1.37.92-2.18,1.11.83-.11,1.63-.43,2.33-.9.38-.26.73-.57,1.06-.89l.02.14c.01.08.01.15.02.23-.26,1.27-.52,2.54-.68,3.84-.25,1.74-.24,3.51-.07,5.25.14,1.26.42,2.51.86,3.7-.17,1.58-.41,3.14-.74,4.7-.09.66-.31,1.28-.47,1.92l-.52,1.91-.68,1.86-.34.93-.41.9c-1.06,2.42-2.41,4.75-4.2,6.73,1.88-1.89,3.34-4.18,4.52-6.58l.46-.9.38-.93.77-1.86.61-1.92c.19-.64.44-1.27.57-1.93.28-1.12.52-2.25.73-3.39.37.73.86,1.4,1.42,1.99.6.59,1.4,1.22,2.29,1.04-.89.16-1.66-.48-2.24-1.08-.57-.64-1.08-1.35-1.43-2.14.73-4.09.96-8.28.71-12.42-.06-1.68-.2-3.34-.39-5,.07-.45.15-.91.21-1.37.03.48.06.97.1,1.45.13,1.4.31,2.81.66,4.18.18.68.39,1.36.71,2,.32.62.77,1.23,1.44,1.49-.65-.29-1.07-.9-1.35-1.53-.29-.64-.47-1.31-.61-2-.28-1.37-.4-2.76-.46-4.16-.08-2.07-.05-4.15.08-6.23.04-.52.08-1.03.11-1.55.02-.2.03-.4.04-.6h0c.13-2.34.16-4.69.1-7.04.13.25.26.5.4.75.49.84,1.03,1.66,1.62,2.43.61.79,1.22,1.46,1.83,2.2.55.66,1.1,1.31,1.65,1.97l-.05.03c-.02-.06.03.1.03.18.02.1.03.2.03.31.01.22,0,.44,0,.67-.03.46-.08.92-.16,1.39-.15.94-.34,1.86-.64,2.75-.29.9-.67,1.8-.88,2.79-.22.99-.15,2.07.24,3,.34.94.99,1.74,1.36,2.56.37.85.46,1.82.34,2.76-.24,1.89-1.1,3.68-2.2,5.25,1.17-1.53,2.11-3.28,2.45-5.22.16-.96.12-1.99-.24-2.93-.39-.95-.96-1.7-1.24-2.59-.31-.88-.33-1.8-.1-2.69.23-.89.65-1.76.99-2.68.35-.92.6-1.89.79-2.84.1-.48.18-.97.23-1.48,0-.02,0-.05,0-.07,1.5,1.86,2.94,3.77,4.15,5.83,1.91,3.19,3.16,6.9,2.85,10.69.52-3.77-.55-7.63-2.33-10.98-.58-1.12-1.24-2.19-1.92-3.24,1.16-.02,2.3.32,3.32.83,1.07.53,2.06,1.22,3.04,1.9,1.95,1.37,3.97,2.72,6.24,3.55,2.26.84,4.68,1.18,7.09,1.25,1.86.05,3.71-.05,5.55-.3-2.67,1.48-5.59,2.6-8.28,4.18-3.48,2.06-6.4,4.96-8.66,8.26,2.36-3.23,5.36-6.01,8.85-7.93,3.49-1.91,7.39-3.04,10.81-5.31.36-.24.71-.5,1.05-.76.41.58.83,1.15,1.26,1.71.89,1.17,1.82,2.32,2.74,3.45-.21.74-.45,1.47-.76,2.17-.45.98-.94,2.08-1.09,3.2-.19,1.12-.17,2.27.01,3.38.38,2.22,1.35,4.29,2.68,6.07-1.24-1.83-2.09-3.94-2.36-6.11-.12-1.08-.1-2.19.14-3.24.2-1.08.69-2,1.19-3.03.28-.58.51-1.18.72-1.78,1.87,2.32,3.69,4.65,5.13,7.22,1.12,2.03,1.96,4.24,2.13,6.57.05.59.05,1.18,0,1.77-.55.28-1.12.51-1.72.68-1.42.4-2.88.42-4.38.32-1.52-.04-3.03.18-4.47.64-1.44.46-2.8,1.15-3.99,2.06-.59.46-1.15.97-1.62,1.56-.45.58-.88,1.26-.89,2.02.03-.76.47-1.42.93-1.98.48-.57,1.05-1.06,1.65-1.5,1.21-.86,2.57-1.51,3.99-1.92,1.42-.41,2.91-.58,4.38-.5,1.47.14,3.04.14,4.52-.25.53-.14,1.04-.33,1.53-.55-.2,1.54-.71,3.05-1.43,4.45.82-1.4,1.43-2.96,1.72-4.58,2.16-1.05,3.95-2.83,5.21-4.84,1.3-2.06,2.22-4.3,2.84-6.65.3,1.35.47,2.73.5,4.11.07,2.76-.42,5.53-1.22,8.19-1.65,5.33-4.5,10.25-7.73,14.82,3.35-4.48,6.35-9.32,8.17-14.68.88-2.68,1.47-5.49,1.47-8.34.02-1.97-.27-3.94-.78-5.85,0-.02,0-.04.01-.05h-.03c-.23-.84-.49-1.66-.81-2.46-.52-1.33-1.16-2.6-1.8-3.85-.65-1.23-1.13-2.47-1.48-3.8-.7-2.65-.97-5.42-1.05-8.19,0-.2,0-.41,0-.61.31.87.64,1.74.99,2.6.92,2.19,2.02,4.3,3.29,6.3,1.24,2.02,2.77,3.85,4.41,5.55,1.64,1.7,3.58,3.09,5.58,4.31-1.96-1.3-3.83-2.74-5.4-4.49-1.57-1.74-3-3.6-4.16-5.64-1.18-2.02-2.18-4.13-3.01-6.31-.68-1.8-1.25-3.65-1.68-5.51.05-1.92.19-3.85.38-5.77.01.04.03.07.04.11.6,1.23,1.14,2.49,1.85,3.65.34.59.66,1.18,1.01,1.76l1.11,1.69c1.47,2.27,2.94,4.37,4.24,6.68,2.64,4.54,4.84,9.37,6.6,14.35.9,2.49,1.67,5.02,2.34,7.58.67,2.56,1.25,5.15,1.63,7.78-.25-2.64-.71-5.27-1.24-7.87-.55-2.6-1.19-5.19-1.98-7.74-1.53-5.11-3.5-10.1-5.96-14.86-1.19-2.38-2.66-4.71-3.95-6.97l-.4-.69c.29-.89.54-1.79.7-2.72.24-1.21.36-2.44.39-3.67.04-1.13-.01-2.26-.13-3.38.24.48.49.96.77,1.42.92,1.54,2.01,3,3.41,4.1-1.29-1.23-2.21-2.76-2.96-4.33-.76-1.58-1.29-3.26-1.74-4.95-.45-1.69-.78-3.42-1.04-5.15-.12-.84-.23-1.69-.31-2.54,2.15-2.3,4.19-4.71,6.05-7.33.09-.12.16-.24.25-.36.02.03.03.05.05.08,1.16,1.94,2.19,3.95,3.05,6.04.07.18.13.36.2.54-.13.69-.34,1.41-.58,2.1-.26.73-.58,1.44-.97,2.12-.39.67-.86,1.3-1.39,1.87-.55.56-1.19,1.02-1.9,1.39.74-.29,1.45-.68,2.07-1.2.61-.52,1.16-1.13,1.65-1.78.47-.66.89-1.36,1.24-2.09.15-.31.28-.61.41-.93.48,1.46.82,2.94.88,4.44.02.44,0,.88-.03,1.33-.03.26-.05.53-.07.79-.16,1.51-.52,3.01-.98,4.48-.68,2.17-1.57,4.29-2.2,6.52-.64,2.21-1,4.59-.51,6.87.47,2.29,1.77,4.27,3.28,5.99-1.45-1.77-2.65-3.79-3.03-6.03-.4-2.24.04-4.53.74-6.67.7-2.16,1.66-4.24,2.44-6.42.15-.43.3-.87.43-1.32,0,.04,0,.09.01.13.23,1.6.62,3.18,1.23,4.67.6,1.49,1.31,2.94,2.24,4.24.88,1.34,1.96,2.52,3.06,3.66-1.05-1.19-2.06-2.42-2.85-3.79-.85-1.34-1.47-2.8-1.98-4.28-.51-1.49-.8-3.04-.95-4.59-.1-1.15-.11-2.34,0-3.47.02-.14.05-.29.06-.43.03-.24.06-.47.1-.7h-.06c.02-.33.06-.65.05-.98,0-2.4-.65-4.71-1.44-6.88-.52-1.41-1.12-2.78-1.78-4.13h0c1.28,1.11,2.61,2.16,4.01,3.12.8.55,1.61,1.06,2.45,1.54.86,1.1,1.62,2.3,2.3,3.53.68,1.26,1.3,2.56,1.73,3.93.43,1.36.74,2.77.8,4.21.03,1.43-.21,2.87-.74,4.22.57-1.33.86-2.77.87-4.22-.01-1.45-.28-2.89-.68-4.28-.4-1.4-.99-2.73-1.64-4.03-.51-.98-1.07-1.93-1.69-2.85.33.17.67.33,1.01.48,1.55.67,3.19,1.19,4.88,1.23-1.68-.17-3.25-.8-4.71-1.57-1.47-.77-2.83-1.75-4.12-2.79-1.29-1.04-2.52-2.16-3.69-3.35-.75-.76-1.47-1.55-2.18-2.35.23-.36.46-.72.69-1.07.62-1.08,1.27-2.14,1.82-3.26.48-.91.91-1.85,1.31-2.8,1.11-1,1.65-2.48,1.91-3.92.14-.77.21-1.54.23-2.32l.37-1.6c.15-.62.26-1.24.35-1.87.02-.15.04-.29.07-.44.5.84,1.04,1.65,1.65,2.41.56.72,1.17,1.4,1.8,2.06l-.07.05c1.04,1.44,1.89,3.05,2.51,4.73-.67.63-1.37,1.23-2.12,1.75.77-.48,1.48-1.03,2.17-1.63.07.19.15.38.21.57.3.98.5,1.99.57,3.01.06,1.02-.05,2.05-.29,3.06.29-.99.44-2.02.42-3.06-.04-1.04-.19-2.07-.46-3.07-.07-.23-.15-.46-.22-.69.5-.44.98-.91,1.43-1.4.79.47,1.62.87,2.47,1.22.08,3.49-.01,6.97-.37,10.45-.5,5.17-1.58,10.29-2.72,15.43-1.13,5.14-2.2,10.3-3.01,15.5,1.17-5.13,2.58-10.18,4.06-15.23,1.48-5.04,2.93-10.14,3.82-15.4.57-3.3.9-6.61,1.08-9.94.17.03.33.07.5.09-.17-.03-.33-.08-.5-.11.21-3.86.19-7.74.04-11.6.15-.24.31-.48.48-.71,0,0,0,0,0,0,.77.68,1.38,1.51,2.07,2.28.62.83,1.23,1.67,1.81,2.54.51.91,1.07,1.8,1.56,2.73l.43.93c-1.63,4.18-3.18,8.4-4.59,12.66-.87,2.63-1.68,5.29-2.37,7.98-.34,1.34-.64,2.7-.86,4.07-.19,1.36-.4,2.78-.03,4.13-.33-1.36-.08-2.76.15-4.11.26-1.36.6-2.7.98-4.03.76-2.66,1.66-5.28,2.6-7.88,1.44-3.94,2.99-7.84,4.62-11.71h0c-.13,1.2-.34,2.37-.51,3.56-.19,1.21-.38,2.44-.51,3.66-.51,4.9-.29,9.88.75,14.68,1.05,4.78,2.8,9.46,5.54,13.51-2.6-4.14-4.17-8.84-5.04-13.61-.86-4.78-.9-9.68-.23-14.46.17-1.2.39-2.38.62-3.57.04-.25.09-.5.14-.76.32.76.67,1.52,1.07,2.25.04.07.08.14.12.21.13.47.26.94.36,1.41.61,2.05.86,4.18,1.23,6.29.11.53.15,1.06.19,1.6l.14,1.61c.08,1.07.2,2.14.26,3.22,0,2.15.08,4.31.03,6.47l-.38,6.48.78-6.45c.18-2.16.24-4.33.36-6.51,0-1.09-.04-2.18-.06-3.26l-.04-1.64c0-.55-.02-1.09-.09-1.63-.17-1.46-.29-2.94-.49-4.4.09.09.17.19.27.29.56.52,1.26.99,1.99,1.2.71.25,1.44.43,2.14.61.35.1.67.2.88.45.22.24.37.58.49.92.25.69.44,1.4.64,2.11-.13-.73-.26-1.45-.44-2.18-.09-.36-.2-.73-.45-1.06-.25-.34-.65-.52-1-.65-.71-.26-1.38-.5-2.04-.8-.67-.27-1.21-.63-1.72-1.14-.38-.38-.72-.81-1.04-1.25-.04-.2-.07-.4-.12-.6-.34-2.18-1-4.29-1.63-6.41l-.71-1.83c.22-1.84.39-3.69.38-5.56.01-2.44-.14-4.91-.67-7.34.3.3.6.61.9.91,2.3,2.23,4.75,4.28,7.32,6.17l1.94,1.39,1.99,1.32c1.28.88,2.56,1.74,3.69,2.79.63.57,1.23,1.18,1.79,1.82-.73,4.4-1.8,8.75-3.23,13-2.02,6.09-4.66,11.99-7.8,17.63,3.48-5.44,6.49-11.19,8.91-17.22,1.5-3.68,2.73-7.48,3.7-11.36.77,1.14,1.43,2.36,1.91,3.66,1.13,2.89,1.53,6.11,1.03,9.22.68-3.08.45-6.36-.55-9.39-.5-1.59-1.23-3.1-2.15-4.5.51-2.13.94-4.28,1.28-6.45.02-.12.03-.25.05-.37,1.71.81,3.49,1.46,5.33,1.87.61.13,1.23.23,1.85.3,1.72,7.47,2.73,15.14,2.5,22.78-.06,1.11-.12,2.23-.21,3.34l-.19,1.66-.1.83-.14.82-.28,1.64c-.11.54-.25,1.08-.38,1.62l-.79,3.34-.39,1.69-.19.84-.12.86-.49,3.44c-.15,2.31-.33,4.62-.16,6.93.21,4.61,1.14,9.18,2.82,13.45.82,2.14,1.86,4.2,3.04,6.15,1.18,1.95,2.55,3.81,4.14,5.43-1.51-1.7-2.78-3.61-3.86-5.6-1.08-1.99-2.01-4.06-2.72-6.21-1.45-4.28-2.14-8.78-2.14-13.26-.06-2.25.23-4.48.47-6.7l.63-3.3.16-.82.23-.81.46-1.62.93-3.27c.16-.56.34-1.12.48-1.69l.38-1.71.19-.86.14-.86.28-1.72c.15-1.15.27-2.31.38-3.46.59-7.7-.03-15.41-1.36-22.99.45-.07.9-.17,1.34-.3-.44.12-.89.19-1.35.25-.27-1.52-.55-3.04-.88-4.56-.9-4.15-2.01-8.25-3.33-12.3.91.57,1.79,1.17,2.63,1.85-.85-.76-1.76-1.44-2.7-2.09-1.53-4.69-3.34-9.29-5.45-13.78-.96-2.03-1.98-4.03-3.06-6.01.01,0,.02,0,.03,0-.01,0-.02,0-.03,0-.98-1.78-2.02-3.53-3.11-5.26,2.73.26,5.5-.06,8.11-.7-2.81.5-5.72.61-8.49.1-2.41-3.76-5.13-7.34-8.2-10.69.48.17.95.37,1.43.52,1.54.51,3.12.93,4.72,1.26,4.08,1.5,8.04,3.79,11.33,6.71,1.72,1.56,3.28,3.32,4.5,5.3.61.98,1.16,2.01,1.59,3.09.45,1.09.94,2.26,1.59,3.31.65,1.06,1.47,2.05,2.49,2.81.52.4,1.09.71,1.7.95v.09c.16.02.34.05.51.08.42.13.84.24,1.27.31.15.02.3.03.45.05,1.74.46,3.4,1.23,4.64,2.49.87.9,1.47,2.06,1.61,3.31.19,1.26-.07,2.52-.38,3.79-.57,2.55-1.18,5.14-1.09,7.8.05,1.32.4,2.63,1.03,3.79.62,1.16,1.47,2.18,2.35,3.14-.86-.99-1.68-2.02-2.26-3.19-.59-1.16-.9-2.45-.91-3.75-.02-2.6.65-5.16,1.29-7.69.34-1.25.65-2.61.48-3.96-.13-1.36-.76-2.66-1.69-3.66-.83-.89-1.86-1.54-2.94-2.04,1.58-.09,3.12-.36,4.63-.39,1.17-.03,2.34.16,3.31.79.99.61,1.82,1.48,2.41,2.5,1.19,2.05,1.53,4.52,1.34,6.89.28-2.36.04-4.86-1.1-7.02-.57-1.07-1.4-2.02-2.42-2.71-1.03-.73-2.32-.97-3.53-.99-2.43-.04-4.82.48-7.09.04-1.12-.21-2.17-.66-3.03-1.38-.87-.7-1.57-1.62-2.14-2.61-.58-1.01-.97-2.07-1.39-3.2-.42-1.16-.96-2.27-1.58-3.33-1.22-2.14-2.81-4.05-4.57-5.76-1.77-1.7-3.74-3.18-5.82-4.47-.19-.12-.39-.23-.58-.34.81.04,1.62.06,2.44.04,1.12,0,2.23-.1,3.34-.21,1.1-.15,2.23-.31,3.26-.49,2.11-.36,4.24-.63,6.36-.76,1.13-.06,2.27-.08,3.41-.04,1.32,1.04,2.59,2.18,3.73,3.42.63.7,1.22,1.43,1.67,2.22.47.78.64,1.67.78,2.62.26,1.87.23,3.82.71,5.71.24.94.64,1.86,1.3,2.59.65.73,1.53,1.2,2.45,1.47-.9-.32-1.75-.83-2.34-1.57-.6-.73-.94-1.64-1.13-2.56-.37-1.86-.25-3.78-.42-5.71-.09-.95-.24-1.99-.73-2.88-.46-.89-1.06-1.68-1.68-2.42-.85-.99-1.76-1.91-2.71-2.78,2.54.24,5.02.84,7.21,2.11,1.81,1.03,3.34,2.5,4.64,4.19,1.31,1.68,2.41,3.53,3.53,5.39,1.14,1.84,2.18,3.77,3.64,5.45,1.42,1.69,3.16,3.08,5.04,4.2,3.78,2.21,8.12,3.36,12.44,3.5-4.32-.28-8.59-1.56-12.23-3.85ZM223.82,70.5c-.12-.48-.25-.96-.37-1.45,1.05.78,2.06,1.61,3.06,2.48-.69-.03-1.37-.05-2.06-.02-.13,0-.27.01-.4.01-.08-.34-.14-.68-.23-1.02ZM242.09,93.01c.88,2.77,1.58,5.62,2.09,8.51-2.29-.62-4.64-1.05-6.99-1.31-1.77-.22-3.55-.31-5.32-.4-.02,0-.04,0-.06,0,.88-.34,1.74-.74,2.56-1.21,1.68-.98,3.26-2.37,4-4.26.66-1.7,1.41-3.37,2.46-4.87.46,1.16.88,2.34,1.27,3.53ZM237.83,94.12c-.73,1.69-2.23,2.92-3.86,3.78-1.48.79-3.13,1.33-4.76,1.67-.82-.11-1.64-.26-2.44-.46-1.65-.43-3.23-1.05-4.64-1.92-.69-.45-1.36-.93-1.93-1.5-.23-.23-.44-.47-.65-.71l-.09-.82c-.11-.82-.25-1.64-.42-2.45-.35-1.63-.85-3.24-1.45-4.8-1.24-3.1-2.9-5.96-4.7-8.65-.47-.7-.97-1.37-1.45-2.05,1.18.39,2.38.7,3.62.89.99.15,1.99.22,3,.21.37,1.95,1.09,3.78,2.13,5.44,1.23,1.94,2.94,3.58,4.93,4.7.25.14.51.26.77.38.02.1.04.19.06.29.29,1.44.51,2.89.77,4.34l.66,4.36-.27-4.41c-.12-1.39-.22-2.78-.36-4.17.49.21.99.39,1.49.55,1.06.33,2.11.7,3.1,1.21.49.25.96.54,1.37.91.41.36.75.82.82,1.35.07.54-.2,1.07-.56,1.48-.36.42-.81.76-1.3,1.04.5-.26.96-.58,1.35-.99.38-.4.7-.95.65-1.54-.04-.59-.4-1.11-.81-1.5-.41-.4-.89-.72-1.38-1-.98-.57-2.04-.99-3.1-1.37-.58-.2-1.14-.44-1.69-.71-.3-2.83-.65-5.65-1.11-8.46-.18-1.12-.39-2.23-.61-3.35.76-.2,1.52-.31,2.29-.3,1.63,0,3.22.63,4.79,1.44,3.04,3.42,5.77,7.17,8.23,11.12.07.17.15.33.22.5.07.17.13.34.2.51-1.2,1.51-2.08,3.23-2.86,4.98ZM218.48,113.05c-.1-.08-.2-.16-.3-.24-.12-1.68-.25-3.36-.39-5.03l-.41-3.95c-.14-1.32-.25-2.63-.45-3.98-.18-1.34-.36-2.69-.63-4.02-.13-.67-.24-1.34-.38-2.01l-.46-2c-.11-.52-.24-1.03-.38-1.54,0-.02.02-.05.02-.07.27.74.52,1.49.73,2.25.19.72.35,1.45.5,2.18l.19,1.12c.06.37.17.85.25,1.27.41,1.7,1.02,3.29,1.8,4.75.36.75.81,1.44,1.21,2.16.46.68.88,1.38,1.36,2.03.74,1.03,1.53,2.02,2.34,2.99.06.13.13.26.19.39.29.62.53,1.27.74,1.93-1.55.95-2.96,2.08-4.21,3.38-.55-.56-1.12-1.1-1.71-1.61ZM199.44,121.15l-.27,1.62-.38,1.6c-.2.81-.44,1.61-.7,2.41-.14-.12-.27-.25-.39-.38-.59-.64-1.07-1.38-1.46-2.16-.79-1.55-1.36-3.23-1.75-4.9h-.01c-.19-1.07-.52-2.11-.92-3.11-.97-2.4-2.27-4.6-3.68-6.73-1.05-1.56-2.14-3.07-3.31-4.54-.07-.25-.14-.51-.22-.76-.46-1.61-.93-3.2-1.39-4.79,0-.02.02-.03.02-.05.05.14.1.28.14.41-.04-.14-.09-.29-.14-.43.68-1.49,1.34-2.98,1.97-4.49,1,.72,1.98,1.46,2.93,2.24.42.58.83,1.18,1.19,1.8.64,1.07,1.21,2.19,1.69,3.34.49,1.15.9,2.34,1.2,3.57.33,1.22.5,2.47.64,3.73-.05-1.26-.14-2.53-.39-3.78-.22-1.25-.55-2.49-.97-3.69-.38-1.13-.85-2.22-1.38-3.29.02.02.04.03.05.05,1.83,1.66,3.55,3.44,5.1,5.37h-.06c-.13,1.43-.13,2.82-.05,4.23.08,1.4.25,2.8.53,4.17.28,1.37.7,2.72,1.22,4.01.31.72.67,1.42,1.08,2.09l-.08.86c-.05.55-.11,1.09-.21,1.63ZM191.42,127.31c-.42-3.85-1.12-7.67-1.98-11.42-.49-2.14-1.03-4.27-1.6-6.39.24.31.49.6.73.91,1.48,1.99,2.86,4.06,3.9,6.27.52,1.11.94,2.26,1.15,3.43.15,1.17.29,2.5.54,3.73.48,2.46,1.18,4.89,2.3,7.12-.26.6-.55,1.19-.85,1.78-1.3-1.88-2.68-3.69-4.18-5.44ZM176.96,155.39c-.48-1.33-.75-2.73-.93-4.13-.05-.39-.07-.77-.11-1.16,1.46-2.18,2.64-4.56,3.39-7.1.02-.08.04-.17.06-.25.11.03.21.06.33.06.51.04,1.01-.11,1.47-.3.67-.3,1.3-.7,1.88-1.15-.47.91-.82,1.86-1.05,2.85-.29,1.25-.35,2.55-.08,3.8-.21-1.26-.09-2.54.26-3.75.34-1.2.88-2.36,1.56-3.38.85-.67,1.69-1.38,2.42-2.18.77-.79,1.45-1.67,2.07-2.58.43-.63.81-1.3,1.16-1.98.09,1.94.09,3.89-.01,5.84-.04.84-.11,1.69-.2,2.53-3.65,4.56-7.88,8.78-12.22,12.9ZM175.77,147.01c0-1.36.06-2.72.19-4.06.72-2.52,1.18-5.1,1.32-7.75.47-1.11.77-2.27.99-3.43.55,1.69,1.07,3.29,1.23,5.03.17,1.91-.05,3.85-.49,5.73-.21-.13-.38-.31-.51-.52.12.22.3.41.5.55-.03.11-.04.22-.07.32-.64,2.45-1.69,4.79-3.03,6.96-.08-.95-.13-1.9-.13-2.85ZM165.02,157.15c-.65-1.5-1.48-2.94-2.64-4.12-1.04-1.12-2.29-2-3.58-2.8.01-.01.03-.03.04-.04.04-.05.08-.09.12-.14.6.17,1.21.33,1.82.47,1.09.26,2.2.44,3.31.53,1.11.08,2.26.09,3.32-.29-1.07.34-2.21.28-3.3.16-1.1-.14-2.19-.36-3.26-.65-.55-.15-1.1-.31-1.65-.49,1.15-1.3,2.24-2.67,3.45-3.88.07.14.16.26.22.41-.06-.15-.14-.28-.21-.42.51-.51,1.04-.98,1.61-1.41,1.51-1.05,3.26-1.67,5.01-2.36.01,0,.03,0,.04-.01h0c.08-.04.17-.07.25-.1.17.05.34.1.51.15-.16-.05-.33-.11-.49-.16.62-.25,1.24-.51,1.85-.8,1.22-.58,2.4-1.33,3.39-2.3.48-.47.91-.99,1.29-1.54-.25,2.51-.79,5.03-1.57,7.44-1.03,3.14-2.55,6.14-4.65,8.69-.45.56-.94,1.08-1.45,1.58-1.12.72-2.27,1.41-3.44,2.07ZM166.98,156.53c-.19.18-.37.36-.56.54-.34.36-.67.72-1,1.09-.08-.21-.16-.43-.25-.64.61-.32,1.21-.65,1.81-.99ZM149,156.07s-.02-.02-.02-.02c-.61-.67-1.16-1.43-1.4-2.29-.27-.86-.15-1.73.18-2.57.39-.91.39-1.95.17-2.9-.22-.96-.68-1.83-1.22-2.62-.16-.23-.33-.44-.5-.66.51.22,1.02.44,1.53.65l2.42,1.03c.33.22.67.44,1.01.64.3,1.45.68,2.88,1.14,4.27-.33,1.25-.62,2.51-.89,3.77-.78.3-1.59.54-2.41.71ZM151.37,155.56c-.16.73-.31,1.46-.44,2.19-.66-.48-1.28-1-1.83-1.59.77-.14,1.53-.35,2.27-.6ZM132.06,117.34c.58-.49,1.16-.97,1.75-1.43-.45,1.13-.87,2.27-1.25,3.42-.16-.67-.32-1.33-.5-1.99ZM114.86,92.51c.05-.11.12-.22.17-.33.54-1.33.74-2.73.63-4.18v.1c.19-2.48.67-4.93,1.52-7.23.84-2.3,2.1-4.44,3.75-6.2.14-.15.29-.28.43-.42-.05.16-.11.33-.16.49-.33,1.15-.53,2.33-.57,3.51-.04,1.18.02,2.37.27,3.52.2,1.16.61,2.26,1.04,3.34-.36-1.11-.67-2.23-.79-3.38-.16-1.14-.14-2.3-.02-3.44.12-1.14.4-2.25.78-3.32.26-.72.59-1.43.97-2.09,1.2-.94,2.51-1.74,3.91-2.34,1.31-.57,2.72-1,4.14-1.27.03,2.28.11,4.56.24,6.83-.27.81-.57,1.62-.92,2.41-.36.89-.8,1.72-1.2,2.61l-1.25,2.69c-1.08,2.51-2.03,5.09-2.66,7.76-.12.26-.24.52-.37.78-.57,1.07-1.28,2.09-2.16,2.96-.88.85-1.85,1.66-2.95,2.24-.52.34-1.12.55-1.68.83-.58.24-1.18.42-1.77.64.6-.18,1.22-.32,1.81-.52.58-.24,1.2-.42,1.75-.73,1.16-.52,2.2-1.28,3.18-2.1.64-.56,1.22-1.2,1.73-1.88-.07.46-.14.92-.19,1.39-.03.35-.05.71-.06,1.07-3.15,1.56-6.33,3.1-9.53,4.65.05-2.79.01-5.59-.06-8.38ZM90.71,114.73c-.07-1.85.28-3.67.69-5.5.1,1.26.32,2.52.67,3.73.07.22.15.43.22.65-.53.37-1.07.74-1.59,1.12ZM93.97,111.58c-.05.31-.08.63-.12.94-.42.28-.83.59-1.24.88-.05-.18-.11-.36-.16-.54-.35-1.41-.51-2.86-.52-4.31,0-.7.03-1.41.09-2.11.21-1.09.38-2.19.43-3.32.26-4-.6-7.96-1.89-11.7.15-.48.31-.95.46-1.42l.51-1.57c.16-.53.4-1,.6-1.5.86-1.97,1.94-3.83,3.23-5.55.55-.72,1.14-1.42,1.75-2.09-.01.04-.03.08-.04.12-.63,1.92-1.08,3.89-1.32,5.89-.25,1.99-.33,4.01-.16,6.01.11,2,.55,3.97,1.05,5.89-.42-1.95-.77-3.92-.79-5.91-.09-1.98.07-3.97.4-5.92.32-1.95.84-3.87,1.54-5.71.24-.65.52-1.3.81-1.93.47-.46.95-.9,1.45-1.34.82-.61,1.64-1.22,2.44-1.86.43-.34.85-.69,1.28-1.05.38-.26.77-.53,1.16-.78,3.66-2.37,7.63-4.27,11.73-5.82,1.4-.53,2.83-1,4.26-1.44-.58.59-1.14,1.19-1.73,1.77l-2.24,2.24c-.75.74-1.54,1.44-2.32,2.16l-4.72,4.35c-1.6,1.48-3.04,3.11-4.35,4.82-.32-.11-.65-.21-.99-.26-.97-.15-1.97.05-2.82.51-.85.45-1.58,1.11-2.13,1.88,1.16-1.47,3.06-2.51,4.91-2.13.29.06.57.15.84.25-1.34,1.78-2.54,3.66-3.62,5.59-4.28,7.82-6.49,16.41-7.76,24.96ZM206.18,58.47c.95.68,1.94,1.3,2.94,1.93l2.6,1.64c-.22.38-.47.73-.79,1.03-.91.91-2.14,1.41-3.38,1.7-1.25.28-2.54.35-3.83.31-.31-.01-.62-.05-.93-.07-.41-.58-.8-1.17-1.17-1.77-1.52-2.49-2.45-5.06-2.89-7.86-.12-.82-.22-1.67-.31-2.56,2.52,1.95,5.1,3.84,7.74,5.64ZM196.23,78.63c0,.49,0,.98-.02,1.47-.16-.28-.31-.57-.47-.85l-1.73-3.16-3.29-6.08c-.24-.49-.48-.98-.72-1.48,0-.23-.02-.45-.03-.68,1.28.59,2.54,1.25,3.74,2.01.42.27.84.56,1.25.85.67,2.56,1.02,5.22,1.27,7.91ZM183.07,105.19c1.07,3.31,2.09,6.62,3,9.95-1.65,1.52-3.06,3.2-4.32,5.03-1.27,1.85-2.31,3.85-3.11,5.94-.16.29-.34.56-.51.84-.08-.79-.14-1.58-.14-2.38-.04-2.05.08-4.1.34-6.14.24-2.04.61-4.06,1.08-6.06.31-1.31.66-2.63,1.04-3.92.22-.41.44-.83.66-1.25.44.1.89.16,1.34.17-.45-.04-.88-.13-1.3-.25.4-.76.81-1.52,1.2-2.29.12-.24.24-.48.35-.73.12.36.24.73.36,1.09ZM180.09,136.76c-.11-2.11-.82-4.2-1.36-6.12-.04-.17-.07-.34-.1-.52.19-.78.4-1.56.67-2.32,1.46-4.19,4.02-8.04,7.22-11.06,1.34,5.12,2.35,10.34,2.75,15.59-.07.18-.12.37-.19.54-.4.99-.87,1.95-1.43,2.86-.56.91-1.17,1.79-1.88,2.6-.68.83-1.47,1.56-2.28,2.27l-.03.03v.02s-.06.1-.09.14c-.68.62-1.42,1.18-2.24,1.6-.44.21-.92.37-1.41.36-.11,0-.22-.02-.32-.05.52-1.92.82-3.92.71-5.94ZM155.9,148.6s-.03-.02-.05-.02c.21,0,.42,0,.63-.03,1.16-.1,2.29-.43,3.35-.91.35-.16.68-.34,1.02-.53-.7.85-1.38,1.71-2.09,2.54-.97-.32-1.92-.66-2.86-1.04ZM158.53,149.92s-.05.06-.08.09c-.13-.08-.26-.15-.39-.23.15.05.31.09.46.14ZM159.67,147.29c-1.01.51-2.1.86-3.22,1-.33.06-.67.07-1.01.07-.37-.19-.75-.38-1.13-.56.68-1.88,1.44-3.73,2.3-5.53,1.27.17,2.53.56,3.64,1.22.81.49,1.55,1.13,2.1,1.92-.05.05-.09.09-.13.14-.76.68-1.63,1.27-2.55,1.74ZM151.7,147.34c.55.24,1.1.47,1.65.72,0,.02,0,.03-.01.05-.08-.02-.16-.03-.23-.05-.47-.12-.92-.29-1.36-.5-.01-.07-.02-.14-.04-.21ZM151.15,147.25c-.32-.18-.65-.36-.96-.56l.57.24c.12.05.23.1.35.15.01.06.03.11.04.17ZM153.06,148.17c.07.03.15.04.23.07-.15.48-.32.95-.46,1.43-.12.41-.22.82-.33,1.23-.3-1.08-.55-2.17-.75-3.27.42.21.85.4,1.31.53ZM151.55,146.44c-.2-1.36-.32-2.73-.35-4.1.52-.03,1.03-.07,1.52-.12.94-.11,1.88-.12,2.82-.05-.74,1.72-1.4,3.47-1.99,5.25-.67-.33-1.33-.65-2-.97ZM109.31,103.67c-.02-.12-.05-.23-.06-.35-.13-1.28.07-2.58.41-3.83.34-1.24.83-2.48,1.41-3.6.39-.14.78-.3,1.14-.5.08,2.26.14,4.51.14,6.77-1.01.5-2.02,1.01-3.04,1.52ZM111.16,80.85c.15,1.39.28,2.8.41,4.2-.82-.22-1.56-.83-2.2-1.47-.11-.12-.23-.24-.35-.37.69-.82,1.39-1.61,2.15-2.36ZM114.52,84.86c.16-.15.32-.3.46-.46-.16.95-.26,1.91-.32,2.86-.04-.8-.08-1.6-.13-2.4ZM114.45,83.74c-.13-1.81-.28-3.63-.45-5.45l1.16-.99c.72-.03,1.44-.14,2.13-.35.07-.02.14-.05.21-.07-.48.87-.88,1.79-1.23,2.71h-.01s-.02.07-.03.11c-.09.24-.19.47-.27.71-.14.41-.24.82-.36,1.23-.3.75-.67,1.47-1.14,2.09ZM117.03,76.24c-.34.14-.69.27-1.05.36l1.77-1.51c.82-.71,1.66-1.39,2.46-2.12l2.38-2.2c2.89-2.66,5.71-5.41,8.46-8.22-.07,1.57-.09,3.15-.1,4.72-.39.08-.77.17-1.16.27-1.28.34-2.52.79-3.71,1.36-2.39,1.13-4.57,2.72-6.3,4.72-.53.61-1.01,1.26-1.46,1.93-.4.27-.85.51-1.3.7ZM131.88,63.94c.22,1.03.4,2.05.49,3.07-.26.04-.51.09-.76.13.08-1.07.17-2.14.27-3.21ZM132.46,69.02c-.01,1.37-.18,2.74-.46,4.11-.2.95-.45,1.89-.76,2.82.03-2.26.1-4.52.22-6.77.33-.06.67-.11,1-.15ZM128.8,94.04c-.44.23-.88.47-1.33.69-.75.38-1.52.75-2.28,1.13.03-.2.05-.4.08-.6.68-3.79,2.17-7.39,3.92-10.81l1.39-2.54c.12-.23.25-.46.38-.69.32.75.78,1.43,1.28,2.04.72.87,1.65,1.59,2.3,2.35.2.17.29.43.44.64.11.21.26.4.36.62-.55.25-1.09.52-1.61.83-1.47.86-2.81,2.03-3.77,3.49-.56.87-.94,1.84-1.17,2.83ZM130.99,91.91c.9-1.21,2.12-2.18,3.49-2.88.46-.24.93-.45,1.41-.64,0,.03.02.05.02.08.12.48.21.98.27,1.47-1.95,1.17-3.94,2.3-5.98,3.37.22-.49.47-.97.78-1.4ZM136.6,89.69c-.05-.45-.1-.9-.2-1.34,0-.05-.02-.09-.03-.14.81-.29,1.64-.53,2.48-.72.53-.12,1.06-.21,1.6-.29-1.25.87-2.55,1.69-3.86,2.49ZM143.14,66.13c0-1.41.04-2.81.1-4.22.23.22.45.45.64.7.68.87,1.04,1.94,1.14,3.05-.55,1.81-1.04,3.64-1.44,5.49-.09.42-.17.85-.25,1.27-.13-2.1-.2-4.2-.18-6.3ZM153.15,60.71c.14,1.72.75,3.53,1.71,5.02.22.79.42,1.6.57,2.4.17.89.3,1.79.38,2.69-.08.1-.15.21-.22.32l-2.19,3.07-2.33,2.97-1.17,1.49c-.39.52-.79.9-1.18,1.36-.4.44-.78.89-1.2,1.32l-1.3,1.24s-.03.03-.05.05c.21-1.97.51-3.94.87-5.89,1.2-1.95,2.17-4.06,2.92-6.22,1.11-3.22,1.82-6.58,2.13-9.99.32-.73.66-1.46,1.03-2.17-.04.77-.05,1.55.04,2.36ZM179.1,106.13c-.56-.37-1.09-.79-1.57-1.24-.3-.29-.58-.6-.85-.92,1.16-2.36,2.4-4.69,3.78-6.92.38,1.22.77,2.43,1.16,3.63-.46,1.04-.9,2.08-1.38,3.1-.37.79-.75,1.57-1.13,2.35ZM156.16,140c.04.13.1.26.15.38-.23.48-.43.97-.64,1.46-.99-.11-2-.14-2.99-.06-.51.03-1,.06-1.5.07-.01-.87,0-1.74.06-2.61.14-1.96.45-3.9.9-5.81.43-1.76,1.02-3.47,1.7-5.15.5.97.97,1.97,1.44,2.97.83,1.78,1.82,3.55,3.21,5-.17.29-.36.58-.53.88-.56,1.01-1.08,2.05-1.57,3.09-.04-.09-.1-.16-.13-.25-.24-.64-.31-1.32-.34-2,0,.68.04,1.37.25,2.03ZM157,141.45c.09.1.17.2.27.28.26.24.55.44.85.61-.45-.14-.92-.26-1.38-.35.09-.18.17-.37.26-.55ZM151.16,133.33c-.57-3.02-1.22-6.02-1.47-9.07-.04-.59-.07-1.19-.08-1.79,1,1,1.93,2.08,2.73,3.26.27.4.53.81.77,1.22-.07.16-.13.32-.2.47-.7,1.89-1.31,3.82-1.72,5.79,0,.04-.02.09-.02.13,0,0,0-.01,0-.02ZM149.69,119.8c.14-1.55.47-3.06,1.09-4.47.28-.7.7-1.31,1.11-1.93.5-.55.97-1.13,1.58-1.55.84-.66,1.78-1.27,2.66-1.97-.14.45-.27.91-.38,1.37-.22.95-.39,1.92-.41,2.89-.02.97.04,1.96.33,2.9.26.85.71,1.62,1.29,2.27,0,.02-.02.04-.03.05l-1.42,2.59c-.77,1.32-1.42,2.69-2.02,4.09-.15-.26-.29-.52-.46-.78-.97-1.53-2.13-2.91-3.41-4.18.01-.39.03-.77.07-1.16,0-.04.01-.09.01-.13h0ZM159.73,93.66c-.65-2.27-.88-4.65-.6-6.96.27-.13.54-.25.81-.36.36-.14.73-.26,1.11-.36.3,0,.59-.03.89-.06.21,1.88.36,3.76.44,5.65-.14.28-.28.57-.38.86l-.37,1.13c-.28.75-.43,1.5-.62,2.25-.07.28-.12.56-.19.83-.42-.98-.8-1.97-1.08-2.99ZM160.05,97.84s-.05.06-.07.09c0-.06.02-.11.03-.17.01.03.03.05.04.08ZM173.59,55.18c.8,1.9,1.63,3.79,2.51,5.65.16,1.81.27,3.64.33,5.49-.37.43-.76.85-1.16,1.25-.29.29-.61.56-.92.84-.47-2.06-1.79-4.09-3.91-4.95-.51-.21-1.04-.34-1.59-.42.85-1.53,1.67-3.08,2.44-4.67.83-1.01,1.6-2.08,2.3-3.2ZM171.14,115.99c-.15.46-.28.93-.42,1.4-.39.07-.78.11-1.17.08-1.27-.05-2.42-.72-3.23-1.65-.83-.93-1.42-2.06-1.87-3.24-.44-1.17-.77-2.42-.95-3.63.24-.34.46-.7.63-1.09.58-1.26.7-2.74.36-4.09-.11-.43-.26-.85-.42-1.25.44-2.87.69-5.76.75-8.65.03-1.39,0-2.77-.03-4.16.38-.53.79-1.04,1.2-1.54.9-.93,1.84-1.83,2.89-2.6.09.49.18.99.29,1.49l.56,2.83c.59,2.59,1.33,5.17,2.36,7.62.06.27.11.54.15.81.17,1.17.19,2.37,0,3.56-.09.51-.2,1.01-.33,1.51-.6.1-1.29.06-1.88-.16-.64-.23-1.19-.69-1.58-1.28-.41-.58-.6-1.3-.76-2.01-.04-.36-.11-.73-.13-1.1l-.03-1.11-.07,1.11c0,.37.02.74.04,1.12.1.74.23,1.5.62,2.18.36.68.95,1.28,1.68,1.62.27.13.56.21.85.28-.37.19-.74.39-1.1.62-1.04.69-2.04,1.44-2.88,2.35-.45.42-.81.93-1.22,1.39-.38.49-.71,1.01-1.06,1.51.39-.48.75-.97,1.16-1.43.43-.43.82-.91,1.3-1.29.88-.84,1.91-1.51,2.96-2.1.58-.32,1.2-.59,1.82-.81-.12.35-.26.71-.42,1.04-.21.57-.56,1.07-.84,1.61-.32.52-.68,1.01-1.02,1.52.37-.48.77-.95,1.13-1.45.32-.52.7-1.01.96-1.57.24-.42.44-.85.61-1.3.01,0,.03,0,.04-.01.03,0,.05,0,.08,0v-.02c.33-.11.66-.2,1-.29.8-.19,1.63-.31,2.44-.35.09.11.18.21.27.32-.14.31-.29.61-.43.92-1.65,3.68-3.09,7.45-4.3,11.29ZM172.99,116.59c-.54.28-1.11.51-1.7.67.12-.37.23-.74.36-1.11.34-1,.69-1.99,1.06-2.98.04,1.14.13,2.28.28,3.42ZM168.6,123.33c-.79,1.01-1.61,2.01-2.46,2.98-.13.15-.28.3-.41.45-.84-.66-1.59-1.42-2.28-2.24-.83-.99-1.58-2.06-2.21-3.18-.63-1.12-1.15-2.31-1.48-3.55-.04-.16-.07-.32-.1-.48,1.07-2.26,1.94-4.6,2.65-6.99.14-.13.28-.27.41-.41.27,1.02.6,2.01,1.03,2.97.55,1.2,1.25,2.36,2.2,3.3.94.95,2.25,1.6,3.59,1.55.38,0,.75-.06,1.12-.14-.4,1.4-.79,2.8-1.33,4.13-.22.55-.47,1.08-.74,1.61ZM159.37,117.88s0,.01,0,.01c.38,1.27.95,2.46,1.63,3.58.68,1.12,1.47,2.17,2.34,3.14.72.79,1.5,1.54,2.36,2.18-.51.56-1.04,1.14-1.56,1.72-.91.57-1.9,1.01-2.95,1.23-1.93.4-3.99.24-5.85-.45-.26-.38-.51-.76-.74-1.15-.11-.24-.24-.48-.36-.73.74-1.63,1.53-3.23,2.48-4.75l1.53-2.58c.39-.72.77-1.46,1.14-2.19ZM159.39,85.14c.35-1.62.95-3.18,1.75-4.63.1.55.21,1.11.3,1.66.16,1.01.3,2.03.43,3.05-.85.1-1.71.13-2.47-.09ZM159.97,85.91c-.06.02-.12.04-.17.07-.2.09-.4.19-.6.29.02-.17.06-.34.09-.51.23.07.46.12.68.15ZM170.22,64.08c1.96.56,3.45,2.34,4.11,4.35-.89.81-1.82,1.57-2.83,2.23-1.35.92-2.84,1.61-4.39,2.15-.28.1-.57.18-.86.26-.03-.04-.05-.08-.08-.11-.61-.85-1.28-1.64-1.98-2.4.47-.67.93-1.33,1.36-2.03,1-1.52,1.94-3.09,2.85-4.69.61,0,1.22.07,1.81.24ZM171.08,82.54c-.27.11-.53.21-.8.31-.3-1.55-.71-3.09-1.28-4.6-.38-1-.82-1.99-1.34-2.94,1.62-1.67,3.31-3.26,5.05-4.8,1.09-.71,2.13-1.51,3.09-2.39.23-.21.44-.42.66-.63.02.62.04,1.25.05,1.87.08,3.52.14,7.1.42,10.71-2.08.59-4.03,1.42-5.86,2.46ZM177.06,81.63c.19,2.04.5,4.07.91,6.06-.07-.05-.14-.09-.21-.14-.22-.17-.5-.25-.74-.37-.26-.1-.5-.27-.78-.31-1.12-.31-2.13-.35-3.13-.65-.92-.28-1.81-.68-2.49-1.29-.02-.16-.04-.31-.07-.47,2.03-1.25,4.26-2.22,6.51-2.83ZM166.45,84.19c-.65.2-1.3.38-1.96.54-.09-.98-.2-1.96-.32-2.94-.08-.62-.18-1.24-.27-1.85.07-.12.14-.24.21-.35.31-.52.67-1,1.05-1.47.24-.3.49-.59.75-.88.35.61.69,1.24.98,1.89.64,1.4,1.14,2.89,1.52,4.41-.65.23-1.3.44-1.96.65ZM168.06,84.53c-1.09.84-2.07,1.81-3,2.82-.12.14-.23.29-.34.44-.04-.77-.1-1.54-.17-2.3.72-.16,1.43-.33,2.13-.52.47-.13.92-.29,1.38-.43ZM162.74,73.67c.17,0,.34-.01.52-.02.14.15.27.31.41.46-.24.23-.46.46-.68.7-.08-.38-.16-.76-.25-1.14ZM164.92,75.68c.32.45.62.92.9,1.4-.26.32-.52.63-.76.96-.36.48-.71.98-1,1.51-.06.1-.11.2-.17.3-.13-.88-.28-1.76-.44-2.64.47-.54.95-1.06,1.47-1.53ZM166.39,73.26c.27-.06.54-.12.81-.2,1.28-.36,2.53-.85,3.71-1.47-1.15,1.14-2.29,2.3-3.38,3.5-.35-.63-.73-1.24-1.14-1.82ZM163.21,73.61c-.16.02-.32.03-.48.04-.05-.21-.09-.43-.14-.65.21.2.42.4.62.6ZM162.27,99.5c-.26-.46-.53-.92-.77-1.39.17-.68.32-1.36.51-2.04.14-.5.28-1,.43-1.5,0,1.64-.05,3.28-.17,4.92ZM163.4,107.55c-.15.37-.36.72-.58,1.06.35-1.32.63-2.65.89-3.98.17.98.1,1.99-.31,2.92ZM172.73,101.97c.18-.79.27-1.61.28-2.43.2.39.41.78.62,1.16.4.65.83,1.29,1.29,1.91-.67.11-1.32.27-1.97.47-.2.07-.41.14-.61.21.14-.44.27-.88.38-1.32ZM175.59,102.53c-.47-.7-.89-1.44-1.28-2.19-1.63-3.36-2.51-7.04-3.09-10.73l-.36-2.79c-.03-.24-.06-.48-.09-.73.68.39,1.41.66,2.14.86,1.07.27,2.21.3,3.16.53.25.02.47.17.72.25.23.11.49.16.7.31.22.14.44.27.66.41.38,1.75.81,3.49,1.29,5.19.21.73.42,1.45.64,2.17-1.31,2.16-2.49,4.38-3.58,6.65-.31,0-.61.02-.9.05ZM154.75,82.77l1.27-1.52,2.54-3.04,1.65-2.15c.03.12.06.25.09.37.11.48.21.96.31,1.44-.27.43-.55.85-.79,1.3-.91,1.66-1.58,3.46-1.96,5.32-1.11-.51-2.27-1-3.46-1.34.12-.13.24-.26.34-.38ZM160.91,100.52c.06-.27.14-.53.2-.8.21.35.43.71.65,1.06l.03.04.04.04c.1.11.19.24.29.35-.37,3.59-1.05,7.15-2.11,10.59-.43.65-.75,1.37-.9,2.13-.05.25-.07.5-.09.75-.26.69-.52,1.37-.81,2.05-.38.87-.8,1.72-1.23,2.57-.53-.69-.91-1.47-1.11-2.31-.22-.92-.22-1.88-.13-2.82.09-.94.31-1.87.58-2.77.28-.89.62-1.78,1.03-2.6,1.06-1.05,1.93-2.36,2.39-3.78.52-1.5.83-3.01,1.18-4.5ZM158.71,135.89c-1.34-1.52-2.2-3.34-3.02-5.22.81.93,1.68,1.81,2.65,2.56.45.34.93.64,1.42.92-.37.57-.71,1.16-1.06,1.74ZM158.59,132.92c-1.08-.91-2.03-1.95-2.87-3.08-.13-.18-.26-.37-.39-.56,1.85.73,3.91.95,5.88.58.87-.16,1.7-.46,2.48-.86-.69.78-1.38,1.58-2.01,2.41-.61.81-1.18,1.64-1.73,2.48-.47-.3-.93-.61-1.36-.97ZM171.25,117.42c.62-.2,1.2-.49,1.75-.81.02.12.04.24.06.36-1.05,1.66-2.16,3.29-3.33,4.87.62-1.44,1.06-2.94,1.52-4.42ZM173.31,116.57c-.14-1.54-.17-3.08-.13-4.61.91-2.34,1.89-4.66,2.96-6.92.1-.21.21-.42.31-.63.26.26.53.53.82.77.53.44,1.11.84,1.72,1.18-1.55,3.14-3.22,6.22-5.04,9.2-.21.34-.43.68-.65,1.02ZM181.08,70.59c.67,1.21,1.34,2.41,2.01,3.61l3.8,6.19,1.44,2.31c-.23.74-.49,1.48-.73,2.22-1.09-1.19-2.07-2.48-3.01-3.78-1.09-1.57-2.04-3.22-2.86-4.93-.24-.51-.47-1.03-.69-1.56,0-1.34.02-2.7.03-4.06ZM190.4,86.06c.04.07.08.14.12.21.58.99,1.14,1.99,1.69,3-.77-.65-1.53-1.31-2.26-2,.15-.4.3-.81.45-1.21ZM159.7,64.86c-.16.28-.34.55-.51.82-.29-.32-.56-.63-.8-.96-.98-1.29-1.4-2.69-1.45-4.29,0-.06,0-.12,0-.18.16.23.32.46.5.67.82,1.05,1.91,1.88,3.12,2.43-.29.5-.57,1-.87,1.49ZM149.23,70.29c-.5,1.74-1.14,3.45-1.94,5.09.22-1.06.46-2.12.72-3.16.65-2.58,1.46-5.12,2.4-7.6-.27,1.92-.66,3.82-1.19,5.68ZM147.46,58.74c-.81,1.97-1.54,3.98-2.18,6.01-.11-.87-.39-1.72-.88-2.5-.31-.5-.69-.96-1.12-1.37.02-.37.03-.74.06-1.11.99.18,2.06.07,2.99-.43.44-.23.84-.52,1.22-.84-.03.08-.06.15-.1.23ZM140.65,52.17c.33-.38.65-.77.99-1.15-.07.43-.14.86-.21,1.29-.32,2.26-.52,4.53-.62,6.79-.59-.39-1.14-.8-1.63-1.29-.68-.64-1.22-1.38-1.62-2.19,1.04-1.15,2.08-2.29,3.1-3.46ZM144.43,97.62c.51,6.39.49,12.83-.03,19.24-.2-.14-.4-.28-.6-.41-1.71-1.08-2.81-2.73-3.22-4.63-.19-.85-.25-1.75-.22-2.65,1.59-3.75,2.97-7.59,4.08-11.54ZM145.59,93.19c0-.08-.02-.16-.03-.24.04-.21.09-.42.13-.63l.13-.87.05-.5c0-.06,0-.17,0-.29,1.53-1.08,3.04-2.22,4.47-3.49l1.54-1.38c.5-.48.97-1,1.46-1.5.15-.16.3-.32.46-.48-.15.35-.31.7-.47,1.06.28-.45.56-.9.84-1.37.48.15.95.32,1.41.51.75.31,1.47.68,2.2,1.05-.08.47-.16.94-.2,1.42-.02.26-.02.53-.03.79-.25.19-.5.39-.74.61-.85.8-1.64,1.69-2.22,2.71-.34.48-.54,1.04-.81,1.55-.23.54-.41,1.09-.62,1.63.23-.54.43-1.08.68-1.61.29-.5.51-1.05.86-1.51.61-.99,1.42-1.83,2.28-2.59.18-.15.37-.29.56-.43-.05,1.89.2,3.77.7,5.57h0s.01.04.02.06c.07.25.13.51.21.76.13.41.29.81.44,1.21.26,1.04.39,2.11.22,3.11-.06.31-.17.59-.32.85-.08.08-.16.16-.25.24-.26.24-.55.47-.83.69-.01,0-.02.01-.03.01-.78.3-1.7.25-2.58.11-1.78-.35-3.82-.56-5.53.34-1.74.9-2.54,2.9-2.52,4.71.07-1.82.97-3.72,2.64-4.47,1.66-.77,3.55-.49,5.32-.06.53.1,1.08.18,1.64.17-.3.22-.6.44-.92.64-1.01.62-2.06,1.19-3.15,1.66-1.09.48-2.23.86-3.37,1.21,1.17-.27,2.33-.57,3.47-.98,1.14-.4,2.24-.89,3.32-1.46.77-.42,1.5-.9,2.22-1.42.37-.17.72-.39.98-.71.01-.01.02-.03.03-.04.36-.3.72-.62,1.05-.95-.1.47-.22.94-.32,1.41-.32,1.5-.6,3.01-1.06,4.43-.43,1.43-1.24,2.66-2.3,3.71-1.06,1.08-2.32,1.87-3.55,2.87-.65.47-1.15,1.1-1.66,1.7-.43.67-.86,1.33-1.14,2.07-.63,1.51-.93,3.09-1.04,4.68h-.03c-.01.28-.04.56-.06.83-1.22-1.16-2.54-2.21-3.9-3.18.92-8.03,1.07-16.16.36-24.24ZM149.01,121.88c-.14,1.11-.36,2.21-.68,3.28-.12-.34-.25-.68-.39-1.01-.63-1.5-1.41-2.92-2.27-4.3-.2-.31-.41-.61-.62-.91,0-.06.02-.12.02-.18,1.39.95,2.72,1.98,3.94,3.12ZM144.9,120.1c.04.06.09.11.13.17.91,1.3,1.76,2.65,2.45,4.08.24.49.45.99.64,1.5-.02.05-.03.1-.04.14-.35.99-.81,1.97-1.47,2.79-.65.83-1.51,1.51-2.54,1.83,1.04-.28,1.94-.93,2.64-1.75.68-.78,1.17-1.7,1.56-2.65.3.86.54,1.74.65,2.64.18,1.56-.1,3.23-1.06,4.54,1.03-1.25,1.42-2.94,1.31-4.56-.08-1.1-.33-2.19-.67-3.24.31-.83.56-1.68.75-2.55.03.41.06.83.09,1.24.31,3.08,1.02,6.07,1.66,9.07.03.16.07.32.1.48-.19,1-.33,2.01-.44,3.02-.19.2-.39.38-.6.56-1.19.96-2.42,1.89-3.59,2.89,1.19-.97,2.43-1.87,3.65-2.81.17-.14.35-.29.52-.45-.07.72-.13,1.44-.15,2.16-.03.89-.01,1.77.03,2.66-.56,0-1.11-.04-1.67-.14-2.54-.4-4.92-1.55-7.01-3.03-.32-.23-.62-.47-.93-.72,1.79-5.67,3.05-11.52,3.95-17.41.02-.15.04-.31.06-.46ZM160.33,143.37c-.27-.18-.56-.34-.85-.49.54.15,1.1.26,1.65.31,1.38.12,2.78.03,4.14-.17.11-.02.22-.04.33-.06-.58.31-1.15.64-1.69,1.04-.55.43-1.05.9-1.53,1.38-.52-.81-1.25-1.48-2.05-2.01ZM165.17,142.45c-1.33.26-2.68.41-4.02.35-1.33-.06-2.71-.36-3.75-1.21-.12-.1-.2-.22-.31-.33.6-1.2,1.22-2.39,1.9-3.54.13-.21.27-.41.4-.62,1.41,1.23,3.03,2.2,4.72,2.95,1.37.62,2.78,1.13,4.2,1.58-1.03.33-2.08.62-3.14.82ZM164.2,139.87c-1.67-.81-3.25-1.83-4.6-3.09.43-.69.87-1.37,1.33-2.04.4.18.81.34,1.23.48,1.37.46,2.83.51,4.25.44-1.42.01-2.86-.11-4.19-.62-.39-.15-.77-.32-1.14-.5.54-.77,1.1-1.53,1.68-2.27,1.4-1.72,2.94-3.23,4.54-4.9.46-.5.9-1.01,1.35-1.52-.05.46-.11.92-.14,1.38-.06,1.03-.05,2.06.04,3.09.07,1.03.27,2.04.49,3.05-.2-1.01-.38-2.02-.43-3.05-.07-1.02-.06-2.05.02-3.08.04-.53.1-1.06.18-1.58,1.68-1.93,3.26-3.94,4.74-6.03.15.55.32,1.1.53,1.63.39.99.94,2,1.85,2.6-.88-.64-1.38-1.65-1.73-2.65-.2-.59-.36-1.19-.49-1.8.65-.92,1.28-1.86,1.9-2.8.79-1.21,1.54-2.43,2.28-3.67-.33,1.77-.59,3.56-.75,5.36-.2,2.09-.26,4.2-.15,6.3.04,1.17.18,2.34.38,3.5-.5.68-1.04,1.33-1.66,1.91-.7.65-1.49,1.23-2.41,1.53-.91.31-1.91.31-2.86,0,.91.39,1.94.49,2.93.24.99-.23,1.88-.77,2.67-1.39.54-.42,1.03-.91,1.49-1.41.03.14.05.27.08.41-.16.66-.31,1.32-.42,1.98-.2,1.28-.49,2.54-.98,3.71-.48,1.18-1.16,2.26-2.05,3.17-.89.9-1.96,1.63-3.11,2.22-.65.34-1.32.63-2.01.93h0c-.22.07-.44.13-.66.2-1.43-.5-2.85-1.07-4.21-1.73ZM183.83,95.39c-.25-.9-.49-1.81-.71-2.71-.04-.15-.07-.3-.1-.44.56.33,1.12.68,1.67,1.04-.27.71-.57,1.41-.85,2.12ZM182.41,89.61c-.59-2.8-1.02-5.6-1.18-8.42-.1-1.53-.14-3.07-.16-4.63.91,1.71,1.95,3.34,3.12,4.87,1.04,1.32,2.13,2.61,3.32,3.79-.68,2.1-1.41,4.18-2.18,6.26-.95-.65-1.92-1.27-2.92-1.87ZM187.95,92.46c.67-1.67,1.32-3.35,1.94-5.04.76.65,1.54,1.27,2.33,1.88,1.58,2.93,3,5.93,4.18,9-.1.1-.2.19-.32.28.12-.08.22-.17.32-.25.02.04.04.08.05.13.33.85.63,1.71.91,2.58-.6-.23-1.21-.44-1.83-.63-.83-.93-1.7-1.83-2.59-2.7-1.68-1.62-3.45-3.12-5.3-4.53.1-.23.2-.47.29-.7ZM197.71,102.05c.16.52.31,1.04.46,1.56-.48-.65-.97-1.29-1.49-1.91.35.11.69.23,1.03.35ZM191.43,47.56c.48,1.24.75,2.6,1.02,4.06.24,1.47.46,3.11.81,4.79.36,1.74.92,3.48,1.64,5.13-1.42-.85-2.9-1.63-4.43-2.31-.63-.28-1.26-.53-1.91-.77l-.43-.35c-1.05-.92-2.1-1.83-3.07-2.82-.52-.52-1.03-1.06-1.53-1.6-2.38-6.34-4.31-12.83-5.72-19.39,2.18,2.23,4.4,4.41,6.65,6.57,2.19,2.05,4.43,4.06,6.71,6.02.09.22.18.45.26.68ZM166.41,33.74c.71,2.85,1.51,5.66,2.39,8.44-.04.25-.08.5-.13.75-.1.58-.21,1.15-.35,1.73-.49,2.32-1.26,4.63-2.08,6.92-1.16,3.05-2.54,6.04-4.09,8.97-1.15-.16-2.19-.83-2.92-1.74.68.92,1.7,1.64,2.86,1.85-.27.51-.54,1.02-.83,1.52-1.01-.53-1.88-1.28-2.53-2.22-.63-.88-1.08-1.91-1.4-2.98.11-.52.23-1.04.37-1.56.49-1.85.95-3.71,1.39-5.57.16-.7.31-1.4.47-2.1,1.36-.96,2.5-2.24,3.27-3.76.47-.95.83-1.98.99-3.04.11-.53.11-1.07.17-1.6.02-.48.07-.95.18-1.41.36-1.55,1.19-2.95,2.25-4.18ZM156.67,32.36c-.15,1.11-.33,2.22-.56,3.32-.78,3.94-1.96,7.83-3.46,11.6l-.75,1.78c0-2.23.3-4.48.75-6.69.52-2.5,1.22-4.98,2.04-7.42.66-.86,1.33-1.72,1.98-2.59ZM150.39,41.97c-.35,2.4-.54,4.85-.4,7.32.01.36.05.72.08,1.08h-.07c-.14,1-.39,2.09-.69,3.12-.31,1.03-.71,2.04-1.22,2.98-.5.95-1.15,1.82-2.02,2.44-.76.57-1.73.84-2.73.81.16-2.34.41-4.67.81-6.97.41-2.18.85-4.36,1.54-6.44,0-.03.02-.06.03-.09,1.7-2.04,3.36-4.1,5.01-6.18-.12.64-.25,1.28-.35,1.93ZM136.6,56.7c.49.76,1.09,1.44,1.78,2,.73.64,1.57,1.15,2.4,1.6-.06,1.95-.06,3.91-.01,5.86.09,4.61.61,9.17,1.18,13.72l.13.78c-.11,1.11-.19,2.23-.24,3.35-.02.35-.01.71-.03,1.06-1.14.16-2.25.39-3.37.7-.87.24-1.72.54-2.56.88-.09-.24-.24-.46-.36-.69-.16-.24-.25-.52-.46-.73-.75-.93-1.56-1.59-2.21-2.44-.6-.8-1.1-1.68-1.3-2.61.16-.29.32-.59.47-.88.91-1.78,1.67-3.66,2.22-5.63.54-1.97.87-4.03.86-6.11.02-2.08-.28-4.14-.67-6.09-.13-.69-.27-1.36-.4-2.02.86-.91,1.73-1.82,2.58-2.75ZM105.16,88.58c1.06-1.75,2.25-3.41,3.53-4.97.1.11.2.22.29.33.66.71,1.41,1.41,2.42,1.74.08.03.16.04.24.06.25,2.89.42,5.78.54,8.69-.11.08-.21.17-.32.23-1.07.66-2.35.96-3.65,1.07-1.39.12-2.77.68-3.79,1.64-1.04.94-1.72,2.19-2.17,3.46-.46,1.28-.7,2.62-.81,3.96-.09,1.03-.07,2.06-.01,3.09-1.4.79-2.79,1.6-4.15,2.45,1.56-7.67,3.97-15.18,7.91-21.75ZM101.57,107.79c-.02-.99,0-1.99.12-2.98.15-1.32.44-2.62.92-3.85.48-1.22,1.17-2.37,2.15-3.2.97-.85,2.21-1.3,3.49-1.37.54-.03,1.08-.1,1.62-.2-.4,1.02-.73,2.05-.95,3.11-.27,1.33-.39,2.72-.17,4.08.03.17.08.34.12.5-2.45,1.25-4.89,2.54-7.3,3.9ZM125.61,109.08c.14-.28.29-.55.43-.83,1.14,2.42,2.19,4.93,3.11,7.45.17.47.33.94.49,1.41-1.76,1.66-3.42,3.42-5.01,5.26-1.16.17-2.28.46-3.36.84.69-4.93,2.16-9.72,4.34-14.13ZM131.4,114.97c-.99-3.35-2.13-6.61-3.54-9.87.53-.84,1.08-1.66,1.67-2.46.75-1,1.54-1.97,2.37-2.89.42-.45.84-.9,1.27-1.32.22-.21.43-.42.65-.61.1-.1.22-.2.33-.29.56-.28,1.12-.57,1.68-.86-.29,1.58-.69,3.14-1.2,4.67.59-1.56,1.06-3.15,1.42-4.78,1.82-.94,3.62-1.93,5.4-3-.17.87-.35,1.74-.56,2.6-.96,3.99-2.25,7.93-3.75,11.78-.57,1.49-1.2,2.95-1.84,4.42-1.32.97-2.56,2.01-3.78,3.07-.04-.15-.08-.3-.13-.46ZM135.3,120.71c.68-1.94,1.48-3.83,2.36-5.67.44-.93.89-1.87,1.34-2.82,0,0,0,0,0,.01.32,1.1.84,2.15,1.55,3.06.54.69,1.21,1.29,1.92,1.77.59.67,1.16,1.37,1.71,2.09-.04.44-.08.87-.13,1.31-.73,5.83-1.8,11.65-3.4,17.33-1.33-1.08-2.56-2.3-3.64-3.61-.04-.08-.08-.16-.11-.24-1.48-3.37-2.28-7.1-2.42-10.75.27-.83.54-1.66.83-2.48ZM140.4,138.63c-.06.2-.12.4-.18.6-.53-.62-1.03-1.26-1.49-1.94.54.47,1.09.91,1.66,1.34ZM140.62,138.78c.25.18.49.37.75.55,2.21,1.47,4.71,2.59,7.38,2.94.58.08,1.17.1,1.76.09.08,1.27.23,2.54.44,3.79-1.94-.93-3.88-1.84-5.76-2.8-.65-.36-1.26-.78-1.85-1.21-.22-.17-.43-.35-.66-.52v.02c-.83-.66-1.58-1.4-2.28-2.19.07-.22.14-.44.22-.66ZM152.72,152.75c.21.55.44,1.09.68,1.63-.3.17-.59.36-.91.51-.13.06-.25.11-.38.17.19-.77.4-1.55.61-2.32ZM152.89,152.2c.22-.77.45-1.54.69-2.3.16-.49.34-.98.52-1.47.04,0,.08.02.12.02.85.38,1.69.77,2.53,1.19.46.24.93.48,1.39.73-1.32,1.5-2.8,2.86-4.5,3.89-.27-.68-.52-1.36-.75-2.06ZM158.49,150.57c1.33.74,2.62,1.58,3.7,2.65,1.19,1.11,2.06,2.5,2.77,3.97-1.52.85-3.07,1.65-4.66,2.37-1.06.48-2.15.89-3.26,1.25-1.31-1.99-2.43-4.1-3.31-6.31,1.8-1.02,3.37-2.41,4.76-3.93ZM196.46,130.96c-.92-2.31-1.39-4.76-1.65-7.21-.04-.4-.06-.8-.09-1.21.33.66.68,1.32,1.08,1.94.48.76,1.05,1.48,1.72,2.08.16.14.33.28.51.41-.4,1.24-.86,2.46-1.41,3.65-.05.11-.1.22-.15.33ZM198.89,116.48c-.44-1.31-.77-2.65-.96-4.01-.19-1.36-.27-2.73-.27-4.1,0-1.05.08-2.1.19-3.13.38.5.72,1.02,1.07,1.54.31,1.51.56,3.02.72,4.55l.16,1.64.05,1.64.03.82-.03.82-.05,1.64-.06.57c-.33-.64-.62-1.3-.86-1.98ZM205.95,110.86c-.07-1.44-.21-2.87-.39-4.3.9.91,1.68,1.93,2.27,3.07-.55-1.23-1.31-2.37-2.22-3.39-.04-.04-.08-.07-.11-.1-.48-3.42-1.28-6.78-2.32-10.03-1.5-4.73-3.48-9.24-5.7-13.58-.07-1.65-.14-3.31-.23-4.97.32.86.66,1.72,1.05,2.55.66,1.4,1.36,2.79,2.25,4.05.88,1.27,1.9,2.46,3.12,3.39-1.17-1-2.11-2.23-2.91-3.53-.81-1.3-1.43-2.7-2-4.11-.57-1.42-1.02-2.88-1.43-4.35-.14-.52-.27-1.06-.39-1.59-.07-.65-.17-1.31-.27-1.96,2.73,2.21,5.16,4.86,7.18,7.86,1.36,2.02,2.62,4.15,3.64,6.41.28.55.52,1.13.76,1.7.24.58.49,1.15.72,1.73.41,1.19.89,2.34,1.23,3.56l.56,1.81c.18.61.32,1.23.48,1.84.32,1.17.57,2.36.81,3.55,0,.26-.03.52-.03.79.01.62.06,1.25.19,1.87.14.62.28,1.16.31,1.77.08,1.19-.09,2.4-.38,3.57-.48,1.87-1.25,3.66-2.2,5.35-1.13-.37-2.17-1.01-3.14-1.69-.28-.2-.55-.43-.83-.64l-.03-.65ZM224.03,79.55c.65,2.52,1.21,5.07,1.72,7.63-.12-.07-.24-.12-.36-.19-1.88-1.15-3.44-2.76-4.55-4.64-.91-1.56-1.53-3.32-1.81-5.08.84-.05,1.68-.15,2.5-.34.55-.12,1.12-.29,1.65-.47.29,1.02.58,2.05.85,3.08ZM222.65,74.65c-.5.14-.98.25-1.51.34-1.88.32-3.81.21-5.68-.18-.31-.07-.62-.15-.94-.24.59-.31,1.21-.6,1.83-.86,1.28-.53,2.61-.97,3.97-1.29.51-.11,1.02-.22,1.53-.31.28.84.55,1.69.8,2.54ZM227.34,73.98c-.91-.07-1.83,0-2.71.17-.16-.79-.34-1.57-.52-2.35.12-.01.23-.03.35-.03.73-.07,1.46-.1,2.19-.1.6.52,1.2,1.04,1.77,1.59.42.4.82.81,1.22,1.22-.73-.25-1.5-.43-2.31-.49ZM220.22,71.93c-1.4.24-2.78.61-4.13,1.08-.96.34-1.89.72-2.8,1.19-1.1-.38-2.18-.84-3.22-1.38-.72-.38-1.44-.81-2.13-1.26-.27-.34-.53-.69-.8-1.03-1.32-1.63-2.58-3.14-3.72-4.68.1,0,.21,0,.31,0,1.33-.04,2.67-.2,3.96-.58,1.27-.39,2.54-1,3.43-2.02.31-.34.54-.72.74-1.12l.23.15c2.01,1.19,4.12,2.33,6.12,3.46.56.3,1.11.61,1.66.94.06.14.11.28.17.41.54,1.34,1.03,2.7,1.51,4.08.06.18.11.37.17.55-.5.06-1,.13-1.5.22ZM164.82,26.45c.22,1.22.5,2.42.75,3.63.13.58.25,1.17.37,1.75-.02.03-.05.05-.07.07-1.39,1.63-2.55,3.58-2.91,5.78-.09.55-.11,1.1-.1,1.65,0,.5.05.99,0,1.48-.04.99-.27,1.96-.62,2.89-.55,1.44-1.46,2.76-2.64,3.82.67-2.97,1.3-5.96,1.85-8.96.17-.95.34-1.9.51-2.86.38-1.76.67-3.54.9-5.34.08-.68.15-1.37.2-2.06.05-.4.11-.8.15-1.21h-.07s0-.05,0-.07c.03-.56.05-1.13.06-1.7,0-.6,0-1.11-.04-1.85h-.08c.34-.48.67-.96,1.01-1.44.22,1.47.47,2.94.72,4.41ZM144.76,34.37c-1.29.98-2.62,1.91-3.98,2.81.4-.46.81-.91,1.24-1.33.62-.59,1.29-1.12,1.99-1.61.25.05.5.08.75.13ZM120.42,55.87c3.23-2.69,6.68-5.09,10.31-7.17.79-.46,1.58-.91,2.4-1.31-.02.08-.03.15-.05.23-.48.59-.93,1.2-1.33,1.88-.92,1.5-1.51,3.35-1.61,5.16-.19.51-.42,1.01-.64,1.51-.85.96-1.68,1.93-2.54,2.87-1.84.45-3.58.96-5.36,1.54-2.2.72-4.38,1.54-6.51,2.44-1.25.53-2.47,1.11-3.69,1.71,0,0,.01-.02.02-.03,2.73-3.2,5.77-6.14,8.99-8.83ZM90.95,83.01c-.4.78-.75,1.57-1.08,2.38.1-.35.21-.69.36-1.03.2-.46.45-.91.72-1.35ZM73.76,100.55c.81-3.72,2.42-7.33,4.52-10.47.72-.52,1.44-1.04,2.17-1.54,1.74-1.21,3.56-2.29,5.4-3.3.96-.52,1.93-1.05,2.91-1.59-.01.04-.03.07-.05.11-.4,1.1-.61,2.29-.57,3.48.02.76.17,1.51.39,2.23-.29,1.04-.61,2.08-.78,3.14-.83,3.99-1.32,8-1.61,12.02-.76.96-1.75,1.73-2.94,2.1,1.13-.29,2.12-.96,2.92-1.81-.31,4.55-.35,9.1-.27,13.64-.21.18-.41.38-.61.56-.94-.93-1.96-1.79-3.09-2.48-1.16-.73-2.25-1.44-3.18-2.4-1.87-1.88-3.16-4.27-4-6.78-.72-2.16-1.13-4.44-1.27-6.7.02-.08.03-.16.04-.24ZM74.97,113.42c-.3-.66-.55-1.34-.77-2.03-.08-.31-.16-.63-.26-.94h-.02c-.53-1.99-.73-4.06-.64-6.12.26,1.16.57,2.3.98,3.41.94,2.57,2.35,5.02,4.35,6.91.98.96,2.19,1.7,3.33,2.37,1.13.63,2.16,1.43,3.1,2.31-1.59,1.42-3.13,2.91-4.57,4.49-1.76-3.53-3.77-6.95-5.51-10.39ZM86.13,131.18c-.83-.78-1.61-1.62-2.32-2.52-.44-.55-.85-1.12-1.26-1.69,1.11-1.18,2.27-2.32,3.49-3.4.13,2.67.31,5.33.53,8-.15-.13-.3-.25-.44-.39ZM87.14,117.5c.11-3.73.32-7.46.68-11.17.1-1.12.27-2.22.4-3.33.12-1,.25-2,.44-2.98.09-.31.17-.62.25-.93.27-1.12.44-2.26.57-3.4l.55-2.26c1.05,3.12,1.73,6.36,1.62,9.65-.01.48-.05.96-.1,1.44-.04.31-.08.62-.11.93-.17,1.34-.43,2.67-.69,4.01-.36,1.81-.61,3.71-.44,5.58-1.07.79-2.12,1.61-3.15,2.46ZM92.91,122.04c-.5-.94-.94-1.91-1.3-2.91.53-.38,1.07-.76,1.61-1.13-.12,1.35-.22,2.7-.3,4.04,0,0,0,0,0,0ZM96.02,164.14c-.04-.42-.09-.83-.13-1.25-.84-8.49-1.3-17.02-1.23-25.53.04-3.85.2-7.7.49-11.53.41.57.83,1.13,1.26,1.68-.43-.59-.84-1.18-1.25-1.78.18-2.31.43-4.61.72-6.9.46.37.94.72,1.43,1.04-.49-.35-.97-.73-1.42-1.13.12-.91.22-1.82.35-2.72,1.95-1.22,3.97-2.36,6.01-3.46.02.06.04.12.06.18-.02-.06-.03-.12-.05-.18,3.26-1.76,6.6-3.41,9.99-4.98,0,0,.02,0,.03,0-.01.55-.02,1.09-.04,1.64-.23,5.37-.77,10.73-1.73,16-.27,1.31-.51,2.63-.82,3.93l-1.06,3.86c-.59,1.76-1.22,3.5-1.92,5.24-.31.12-.64.18-.97.09.31.1.64.06.95-.03-.3.74-.61,1.48-.94,2.21-3.35,7.8-6.87,15.58-9.72,23.62ZM113.71,128.57c-1.4,1.78-2.1,3.91-3.27,5.74-.3.51-.63,1-.98,1.47.29-.74.58-1.47.85-2.22l1.19-3.95c.34-1.33.62-2.67.93-4.01,1.11-5.37,1.8-10.81,2.16-16.26.06-.97.1-1.94.15-2.91.32-.15.64-.29.96-.44,2.6-1.17,5.21-2.32,7.83-3.5-.85,1.47-1.63,2.98-2.31,4.53-2.26,5.13-3.65,10.6-4.14,16.12-.07.77-.12,1.55-.16,2.32-1.21.88-2.31,1.91-3.21,3.1ZM121.14,124.16c.84-.29,1.69-.52,2.55-.67-1,1.22-1.94,2.48-2.85,3.77.07-1.04.17-2.07.3-3.1ZM117.7,138.61s0-.05,0-.07c.05.34.11.69.16,1.03.23,1.25.5,2.5.79,3.74-.67-1.47-.93-3.08-.96-4.69ZM125.03,154.22c-1.73-4.95-3.03-10.04-3.74-15.19-.31-2.58-.56-5.16-.55-7.74,0-.56,0-1.12,0-1.68,1.51-2.13,3.14-4.18,4.9-6.11,1.46-1.59,3-3.12,4.61-4.58.43,1.34.82,2.69,1.19,4.05-.84,3.04-1.49,6.12-2,9.21-.35,2.11-.62,4.22-.8,6.35-.19,2.13-.31,4.26-.27,6.43.03.55.02,1.08.09,1.65l.14,1.54c.02.37,0,.74,0,1.11h-.02s.01.09.02.13c-.02.56-.06,1.13-.13,1.71-.25,2-.73,4.03-1.24,6.05-.16.62-.32,1.24-.49,1.86-.55-1.61-1.12-3.21-1.7-4.8ZM127.3,174.12c-.46-1.22-.66-2.53-.78-3.83-.09-1.14-.09-2.3-.05-3.44.06-.25.13-.5.19-.75.43,1.33.83,2.66,1.26,3.99.19.63.41,1.26.59,1.89l.45,1.92.74,3.11c-1.21-.53-1.96-1.7-2.4-2.88ZM130.35,192.88c-.13-1.72-.1-3.46.19-5.17.11-.78.27-1.55.44-2.32,0,.06,0,.11.01.17.37,3.53.37,7.1.01,10.64-.34-1.08-.56-2.19-.65-3.32ZM132.15,172.17c-.07,2.04-.22,4.08-.45,6.1-.81-5.5-2.25-10.92-3.95-16.2.43-1.46.88-2.92,1.31-4.4.19-.68.38-1.36.56-2.04.38,1.67.84,3.32,1.41,4.95.27.77.58,1.54.9,2.29.25,3.08.31,6.2.22,9.3ZM134.71,165.15c-.84-1.63-1.51-3.35-2.04-5.12-.92-3.06-1.48-6.27-1.75-9.44.14.22.27.43.42.65,1.13,1.62,2.46,3.11,4,4.35.87.72,1.84,1.3,2.85,1.77.85.69,1.62,1.53,2.14,2.51.27.53.45,1.1.5,1.7.03.6-.12,1.19-.36,1.75.29-.53.48-1.13.49-1.75,0-.62-.15-1.23-.39-1.8-.24-.57-.58-1.1-.95-1.59-.09-.11-.19-.22-.28-.33.4.15.81.29,1.22.41l1.42.33,1.45.12c.48.07.96.04,1.44,0l1.43-.1c-1.91-.02-3.84-.1-5.59-.84-1.75-.67-3.37-1.65-4.7-2.95-.01-.01-.02-.02-.03-.03.7.12,1.44.14,2.13-.03.73-.16,1.4-.55,1.89-1.09.52-.51.85-1.15,1.14-1.79-.37.6-.76,1.19-1.31,1.6-.52.44-1.16.71-1.81.78-.65.08-1.32-.02-1.94-.22-.48-.16-.95-.38-1.37-.64-.77-.93-1.47-1.92-2.06-2.97-.81-1.43-1.49-2.98-1.96-4.51,0-.32,0-.65-.01-.96.02-2.04.2-4.11.45-6.16.24-2.06.57-4.1.97-6.14.24-1.24.52-2.46.81-3.69.3,1.49.53,2.99.79,4.49l.37,3.05c.06.51.13,1.02.17,1.53l.1,1.53c.36,4.09.18,8.2-.11,12.31.55-4.07,1-8.2.9-12.34v-1.55c0-.52-.05-1.03-.07-1.55l-.17-3.11c0-.07-.01-.14-.02-.21.21.5.43.99.66,1.47,1,2.07,2.32,4.01,3.91,5.69.12.18.22.36.34.55-.65,2.03-1.37,4.04-2.18,6.01.85-1.91,1.61-3.85,2.31-5.81.36.59.71,1.19,1.02,1.81.58,1.14,1.08,2.33,1.45,3.55.37,1.22.65,2.49.62,3.77-.01,1.28-.3,2.56-.97,3.69.74-1.08,1.12-2.37,1.22-3.68.11-1.32-.09-2.64-.38-3.92-.3-1.28-.73-2.53-1.25-3.74-.06-.14-.13-.27-.19-.41.81.66,1.67,1.24,2.57,1.76.79.68,1.52,1.42,2.13,2.23,1.09,1.39,1.79,3.22,1.2,4.9-.31.9-.4,1.95-.06,2.87.29.89.87,1.62,1.49,2.26-1.29.25-2.61.35-3.93.33,1.33.05,2.68-.02,4.01-.24h0c.64.64,1.36,1.19,2.11,1.68-.31,1.66-.57,3.32-.79,4.99-.25,2.06-.45,4.12-.57,6.19-.06-.03-.11-.06-.17-.09-1.49-.69-3.07-1.16-4.66-1.55-1.41-.34-2.84-.55-4.27-.71.83-.28,1.64-.65,2.37-1.14.92-.63,1.69-1.48,2.19-2.46.55-.97.65-2.1.71-3.16-.15,1.06-.33,2.15-.94,3.04-.55.9-1.34,1.63-2.24,2.15-.92.51-1.92.84-2.95,1.04-1.02.2-2.1.29-3.1.24v.06c-.34,0-.68-.01-1.02,0-.27-.44-.53-.89-.77-1.35ZM169.77,181.76c-.36.26-.74.5-1.12.74-2.2.42-4.47.64-6.72.63-2.38-.01-4.77-.3-7.02-1.09-2.25-.79-4.28-2.1-6.26-3.45-.99-.67-1.99-1.34-3.08-1.86-1.04-.5-2.19-.82-3.35-.79-1.38-2.14-2.91-4.18-4.43-6.21-.56-.75-1.17-1.52-1.68-2.25,0-.01-.01-.02-.02-.03.12,0,.24-.01.36-.02v.02c.13,0,.25-.03.38-.04.99-.03,1.98-.03,2.96.01,1.61.08,3.22.22,4.81.51,1.67.3,3.34.74,4.91,1.4-.14,2.33-.19,4.66-.12,6.99,0-2.31.12-4.61.32-6.9,1.33.57,2.59,1.3,3.71,2.26-1.08-1.03-2.35-1.84-3.69-2.51.19-2.09.44-4.17.76-6.24.25-1.59.55-3.17.88-4.75.66.4,1.35.77,2.05,1.09-.7-.36-1.38-.76-2.03-1.2.2-.93.41-1.86.64-2.78.18-.07.35-.14.53-.22.32-.14.62-.29.92-.46.96,2.18,2.13,4.25,3.51,6.19-.38.12-.75.26-1.13.37-1.51.41-3.1.72-4.66.41,1.56.35,3.17.08,4.69-.29.4-.1.8-.23,1.19-.35.16.22.31.46.47.68-.16-.22-.29-.46-.44-.68,1.11-.33,2.2-.71,3.27-1.16,1.61-.68,3.18-1.43,4.72-2.24.1.21.19.42.28.64-.8.87-1.58,1.75-2.27,2.71-1,1.35-1.91,2.77-2.65,4.28-.73,1.51-1.35,3.1-1.54,4.76.24-1.66.91-3.22,1.67-4.7.78-1.48,1.72-2.86,2.75-4.16.68-.88,1.44-1.7,2.21-2.49.02.05.05.1.07.15-.02-.05-.04-.1-.06-.15.38-.4.76-.79,1.16-1.18,1.21-1.12,2.51-2.23,3.61-3.52,2.13-2.48,3.69-5.4,4.82-8.46,0,.54.01,1.08.04,1.61.05,1.14.17,2.27.33,3.4-.75,1.15-1.56,2.26-2.45,3.3.89-.98,1.71-2.02,2.48-3.11.03.23.06.47.1.7.24,1.42.58,2.83,1.13,4.16,0,.02.02.04.03.06-.61.58-1.22,1.16-1.83,1.73l-1.29,1.21-1.31,1.32c-.45.42-.85.91-1.25,1.39-.39.49-.82.94-1.16,1.49-.56.78-1.07,1.62-1.51,2.51-1.53.53-2.94,1.4-4.06,2.54-1.96,1.91-3.37,4.32-4.31,6.86,1.01-2.51,2.5-4.86,4.48-6.67,1.05-1,2.31-1.76,3.66-2.23-.57,1.29-.98,2.67-1.1,4.11-.12,1.2-.03,2.4.19,3.55-.91-.04-1.82-.16-2.73-.29.9.18,1.82.34,2.75.43.26,1.31.7,2.58,1.25,3.75.63,1.33,1.39,2.57,2.2,3.76-.34.27-.68.53-1.03.78ZM171.83,165.13c.66.09,1.3.16,1.98.27.68.1,1.36.25,2.06.25,1.38.12,2.8-.07,4.14-.48,1.31-.41,2.52-1.11,3.54-2.03-.26.59-.54,1.18-.81,1.76l-.18-.13c-.96,1.39-2.16,2.7-3.45,3.86-1.3,1.16-2.73,2.16-4.28,2.96-1.54.83-3.24,1.33-4.97,1.6-.11.02-.23.02-.34.04-.16-1.06-.18-2.13-.02-3.16.25-1.77,1.03-3.43,2.09-4.94.08,0,.17,0,.25,0ZM181.36,167.63c-1.03,1.93-2.16,3.81-3.42,5.59-1.69,2.39-3.6,4.66-5.78,6.61-.66-1.11-1.27-2.25-1.74-3.42-.39-.97-.68-1.96-.85-2.96.11-.01.22,0,.33-.02,1.77-.18,3.53-.62,5.16-1.39,1.63-.74,3.16-1.71,4.56-2.84.61-.5,1.2-1.03,1.76-1.58ZM173.8,182.42c-.41-.61-.81-1.23-1.2-1.85,1.17-.97,2.28-2.02,3.31-3.14.18,1.72.21,3.48.08,5.21-.07.81-.19,1.62-.34,2.42-.63-.88-1.26-1.76-1.86-2.65ZM188.17,184.33c.68,1.23,1.33,2.45,1.87,3.71.34.78.61,1.58.86,2.39-.53,2.73-1.49,5.44-2.94,7.83-1.13,1.88-2.7,3.54-4.61,4.58.07-.54.1-1.08.08-1.63-.04-2.41-.78-4.76-1.82-6.92-1.48-3.03-3.43-5.74-5.37-8.42.26-1.04.44-2.1.56-3.16.21-2.09.22-4.17-.01-6.28.72-.82,1.4-1.67,2.06-2.54,2.44-3.24,4.48-6.76,6.21-10.42.16-.33.3-.67.45-1.01-.25,3.13-.34,6.28-.21,9.43.07,1.58.22,3.16.45,4.73.04.98.01,1.99-.1,2.97-.15,1.24-.43,2.47-.85,3.65-.41,1.19-1.03,2.29-1.78,3.3-.74,1.03-1.73,1.84-2.78,2.57,1.09-.66,2.15-1.41,2.97-2.41.83-.98,1.54-2.08,2.05-3.28.51-1.17.87-2.41,1.11-3.66.05.19.08.38.14.57.38,1.37.94,2.75,1.64,3.99ZM185.04,159.44c-.93,2.25-2.89,4.21-5.27,5-1.23.42-2.55.64-3.87.57-.66.02-1.32-.11-1.98-.18-.63-.08-1.3-.14-1.95-.2.08-.1.15-.21.23-.31.3-.45.72-.84,1.09-1.25.37-.41.75-.82,1.18-1.18l1.25-1.13,1.36-1.14c.48-.4.96-.82,1.44-1.23.19.22.39.44.61.64-.21-.21-.4-.43-.58-.67,2.02-1.71,4.04-3.44,6.02-5.24.06-.01.12-.03.18-.04,0,.41.02.82.05,1.23.11,1.3.36,2.57.69,3.79-.15.44-.29.89-.45,1.32ZM191.71,154.52c.13.35.26.7.4,1.04.19.72.37,1.45.49,2.19.21,1.19.32,2.4.34,3.62.03,1.21-.03,2.43-.2,3.64-.11.91-.31,1.81-.54,2.7l-.55-.95c-.31-.57-.59-1.16-.88-1.74-.62-1.14-1.07-2.35-1.58-3.53-.58-1.59-1.05-3.21-1.34-4.83.54-1.5,1.04-3.02,1.48-4.55.28-.96.54-1.93.78-2.9.01.05.02.1.03.15.43,1.75.94,3.47,1.56,5.16ZM193.44,136.56c-.55.87-1.13,1.72-1.72,2.56.19-2.83.18-5.66,0-8.48,1.04,1.22,2.03,2.49,2.98,3.79-.4.72-.8,1.43-1.26,2.12ZM202.57,130.02c.58-1.35,1.09-2.74,1.53-4.15l.29-.97c-.02.4-.06.8-.11,1.19-.2,1.42-.66,2.89-1.71,3.93ZM211.62,128.93c-.39-1.19-.88-2.35-1.49-3.45.7.62,1.43,1.21,2.21,1.72.18.12.37.24.56.35-.4.48-.83.93-1.28,1.37ZM213.04,127.38c-.19-.12-.38-.25-.56-.38-1.16-.83-2.2-1.79-3.16-2.84-.01-.02-.02-.03-.03-.05h0c-.61-.67-1.2-1.37-1.73-2.11-.73-.98-1.35-2.03-1.91-3.12.02-.15.05-.29.07-.44l.17-1.9.08-.95.02-.95.04-1.9-.03-.86c.23.15.44.32.68.46,1.01.63,2.09,1.21,3.25,1.53-.23.42-.47.83-.73,1.24.28-.4.53-.81.79-1.23.36.1.72.17,1.09.21-.36-.06-.72-.15-1.06-.26,1.02-1.65,1.87-3.42,2.44-5.29.29-.99.49-2.02.53-3.07l.49,2.83c.29,1.81.55,3.63.8,5.45l-.06.14s.06.03.08.04c.44,3.29.8,6.59,1.03,9.89-.42.85-.89,1.67-1.45,2.44-.27.37-.55.73-.84,1.08ZM213.23,127.51c.3-.34.6-.68.88-1.04.46-.58.87-1.21,1.25-1.85.09,1.38.15,2.75.18,4.13-.8-.36-1.58-.77-2.32-1.25ZM218.41,116.88h0s0,0,0,0h0ZM223.08,118.11c-.7-.89-1.33-1.84-2.13-2.65-.06-.07-.14-.14-.2-.21,1.18-1.16,2.52-2.18,3.94-3.01.04.14.09.27.12.41.59,2.28.83,4.67.9,7.06.04.95.01,1.91-.03,2.86-.27-.53-.54-1.06-.8-1.6-.57-.97-1.17-1.92-1.79-2.86ZM228.92,111.85c-2.1-2.28-4.04-4.7-5.68-7.28-.42-.64-.78-1.31-1.17-1.96-.33-.68-.71-1.33-.99-2.02-.39-.83-.7-1.69-.94-2.54.36.24.72.47,1.09.69,1.64.91,3.42,1.5,5.21,1.88,1.8.36,3.61.48,5.41.5,1.76,0,3.51,0,5.26.14,2.43.15,4.85.47,7.22,1,.93,5.57,1.15,11.27.77,16.95-1.62-.85-3.32-1.57-5.09-2.1-2.08-.59-4.21-.99-6.47-.74-1.61-1.44-3.16-2.94-4.62-4.51ZM243.11,124.21c-1.12-1.16-2.42-2.14-3.68-3.11l-1.88-1.4-1.83-1.46c-.39-.32-.77-.66-1.16-.99,1.71-.11,3.54.16,5.25.59,1.8.47,3.56,1.15,5.25,1.98-.03.41-.06.82-.09,1.24-.15,1.52-.34,3.04-.57,4.55-.41-.48-.83-.95-1.28-1.4ZM253.62,119.39c.31,1.18.6,2.37.88,3.56-.59-.09-1.18-.21-1.75-.35-1.86-.48-3.64-1.22-5.32-2.11.8-5.67,1.01-11.44.53-17.19.05.02.11.04.16.06,2.2,5.2,4.05,10.57,5.5,16.04Z"/>
</svg>