<?xml version="1.0" encoding="UTF-8"?>
<svg id="Layer_1" data-name="Layer 1" xmlns="http://www.w3.org/2000/svg" viewBox="0 0 204.18 266.74">
  <defs>
    <style>
      .cls-1 {
        fill: #97cfb2;
      }
    </style>
  </defs>
  <path class="cls-1" d="M191.59,161.03c-1.64-.88-3.54-.99-5.35-.96-3.68.04-7.19,1.28-10.78,1.35-3.59.15-7.19-.45-10.51-1.76-3.19-1.27-6.2-3.17-8.55-5.59-.29-1.17-.63-2.35-1.09-3.49-.1-.25-.22-.49-.32-.74,1.1.83,2.26,1.56,3.5,2.15,1.47.72,3.02,1.3,4.62,1.63,1.58.4,3.22.5,4.83.55-1.61-.14-3.22-.34-4.77-.82-1.55-.42-3.03-1.07-4.43-1.85-1.4-.77-2.7-1.72-3.87-2.79-.29-.26-.57-.54-.85-.82-1.67-2.92-4.03-5.45-6.63-7.52-.13-.11-.28-.2-.41-.3.9.2,1.81.35,2.73.44,1.49.13,3,.11,4.47-.15,1.47-.29,2.87-.84,4.12-1.63-1.3.72-2.71,1.17-4.16,1.36-1.46.16-2.92.09-4.36-.13-1.44-.22-2.85-.61-4.23-1.09-.14-.05-.29-.12-.43-.17-2.78-1.91-5.75-3.5-8.78-4.9-1.17-.54-2.35-1.04-3.52-1.52,1.46-1.08,3.03-2.07,4.63-2.95.69-.38,1.4-.73,2.11-1.07,2.33.12,4.7.46,6.96,1.12,1.17.33,2.29.8,3.33,1.43,1.02.63,1.96,1.49,2.4,2.66-.37-1.19-1.28-2.13-2.28-2.83-1.02-.7-2.15-1.25-3.31-1.65-1.84-.65-3.75-1.08-5.68-1.36,1.08-.46,2.18-.87,3.31-1.22,2.37-.72,4.84-1.11,7.33-1.16,2.5-.03,4.96.49,7.33,1.29-2.33-.91-4.79-1.55-7.33-1.62-2.52-.06-5.05.23-7.51.85-2.45.65-4.82,1.56-7.09,2.68-1.91.95-3.75,2.02-5.51,3.27-.32-.14-.65-.27-.97-.41-1.32-.59-2.61-1.23-3.88-1.89.69-.48,1.39-1.01,1.97-1.66,1.32-1.4,2.08-3.35,2.04-5.28-.01-1.94-.62-3.8-1.43-5.5-1.14-2.33-2.62-4.44-4.29-6.38,1.68.74,3.46,1.3,5.31,1.53.56.07,1.18.08,1.71.1.54,0,1.07.02,1.61.07,1.07.09,2.13.25,3.18.51,2.08.51,4.07,1.45,5.77,2.81,1.67,1.37,3.09,3.13,3.88,5.19-1.32-4.25-5.08-7.56-9.38-8.9-.68-.22-1.38-.39-2.09-.54,2.41-.93,4.76-1.96,7.05-3.15,1.47-.76,2.91-1.58,4.27-2.53,1.35-.95,2.67-1.98,3.71-3.26-1.11,1.22-2.47,2.17-3.86,3.04-1.39.86-2.87,1.6-4.36,2.27-2.91,1.32-5.94,2.4-8.99,3.3-.24-.03-.48-.06-.72-.08-.56-.06-1.05-.1-1.58-.19-2.06-.37-4.04-1.21-5.89-2.27-2.25-1.29-4.34-2.86-6.31-4.58.62.07,1.24.12,1.87.14,1.87.01,3.71-.3,5.48-.8,1.79-.47,3.46-1.25,5.1-2.07.8-.44,1.59-.91,2.37-1.37l2.17-1.48c1.08.87,2.27,1.57,3.56,2.04.67.23,1.36.38,2.07.42.71.02,1.41-.09,2.07-.33-.67.22-1.37.3-2.06.25-.69-.07-1.37-.24-2.02-.49-1.27-.51-2.45-1.27-3.47-2.16.02-.32.4-.68.75-.89.39-.25.83-.42,1.27-.58.89-.29,1.81-.51,2.75-.66.91-.15,1.83-.26,2.76-.35,0,.13.02.26.02.39,0-.13,0-.26,0-.4.96-.09,1.92-.15,2.88-.2-.96.03-1.92.07-2.88.13,0-2.99-.69-5.99-2.02-8.7-1.38-2.86-3.37-5.4-5.58-7.66-2.42-2.46-5.08-4.64-7.79-6.73.2.07.4.16.6.23,1.76.62,3.54,1.17,5.36,1.59,1.82.41,3.65.77,5.52.87,1.86.11,3.74.03,5.54-.42-1.82.37-3.68.34-5.51.15-1.83-.19-3.63-.63-5.4-1.12-1.77-.5-3.5-1.13-5.21-1.83-1.35-.55-2.67-1.16-3.97-1.81-1.26-.96-2.52-1.91-3.76-2.88-1.21-.96-2.47-1.95-3.51-2.97-1.06-1.05-2-2.23-2.85-3.49-.31-.46-.6-.94-.89-1.41.11-2.51.3-5.01.55-7.51.08-.79.17-1.56.26-2.34.36,1.58.76,3.16,1.27,4.7.7,2.04,1.54,4.07,2.75,5.87,1.18,1.77,2.9,3.42,5.09,3.73-2.17-.4-3.77-2.09-4.86-3.87-1.12-1.82-1.86-3.84-2.46-5.88-.59-2.05-1.02-4.15-1.34-6.26-.05-.3-.08-.61-.12-.91.04-.28.07-.55.11-.84.24-1.98.42-3.97.48-5.98.11-4.02-.17-8.12-1.23-12.18-.55-2.02-1.28-4.03-2.32-5.95-.52-.96-1.11-1.9-1.81-2.8-.03-.04-.06-.07-.09-.11.21-1.97.4-3.94.6-5.92.1-1.06.19-2.11.29-3.16h-9.7c-.04.83-.07,1.66-.11,2.48-.39,7.98-.89,15.97-1.75,23.8-1.13.84-2.27,1.67-3.41,2.48-2.44,1.71-4.92,3.37-7.51,4.78-.65.33-1.31.68-1.98.94-.31.13-.69.29-1.07.47-.36.19-.71.41-1.03.66-1.28,1-2.13,2.36-2.78,3.74-1.26,2.8-1.83,5.8-2.06,8.79.44-2.96,1.24-5.9,2.64-8.49.71-1.28,1.61-2.46,2.77-3.24.29-.19.59-.35.9-.49l1.02-.37c.74-.25,1.43-.57,2.13-.88,2.75-1.32,5.35-2.86,7.91-4.47.73-.46,1.45-.94,2.18-1.41-.07.6-.13,1.21-.21,1.8l-.52,3.39-.65,3.26c-.24,1.25-.54,2.56-.75,3.84-.14,1.28-.36,2.56-.42,3.83-.24,3.26-.18,6.48.03,9.66-.92,2.17-1.95,4.3-3.1,6.35-.55.33-1.37.55-2.12.65-.82.11-1.67.11-2.52.03-.85-.06-1.69-.23-2.53-.42-.84-.21-1.66-.47-2.48-.75.78.37,1.58.71,2.4,1.01.83.28,1.67.54,2.54.7.87.17,1.76.27,2.66.24.41-.01.83-.05,1.25-.13-1.28,2.07-2.72,4.05-4.31,5.91-1.95,2.2-4.2,4.12-6.68,5.75,1.86-1.06,3.63-2.31,5.27-3.71-.84,1.55-1.58,3.15-2.22,4.79-.4,1.05-.74,2.13-.97,3.24-.22,1.09-.33,2.27.06,3.34-.35-1.08-.19-2.24.07-3.31.27-1.08.65-2.14,1.09-3.16.89-2.05,1.96-4.02,3.15-5.9l-.04-.03c.22-.21.45-.41.67-.62,2.08-2.14,3.96-4.48,5.61-6.97.87-1.34,1.69-2.73,2.46-4.13.08.82.16,1.64.27,2.46.32,2.51.74,5,1.24,7.47-.02.26-.03.52-.06.78-.25,2.62-.69,5.23-1.35,7.78-.55,2.17-1.26,4.29-2.12,6.35-2.4,1.81-5.03,3.36-7.82,4.49-3.34,1.33-7.07,2.02-10.59,1.14-.87-.2-1.71-.56-2.63-.81-.9-.26-1.82-.44-2.76-.51-1.87-.15-3.81.23-5.4,1.23-1.59,1-2.82,2.46-3.77,4.04-.96,1.58-1.68,3.28-2.38,4.98.74-1.68,1.51-3.36,2.5-4.91.98-1.54,2.23-2.94,3.79-3.86,1.57-.92,3.42-1.23,5.21-1.04.9.09,1.79.28,2.65.56.86.26,1.7.64,2.62.89,3.66,1.01,7.56.37,11.04-.92,2.36-.89,4.59-2.07,6.7-3.44-1.01,2.13-2.19,4.18-3.56,6.11-1.52,2.14-3.26,4.14-5.19,5.93-.37.34-.74.66-1.12.99-.78.13-1.57.25-2.36.34-1.46.17-2.94.24-4.41.19-1.47-.04-2.95-.2-4.36-.62-1.41-.41-2.78-1.06-3.84-2.11,1,1.12,2.35,1.87,3.76,2.37,1.42.52,2.91.77,4.41.91,1.5.14,3.01.16,4.51.08.33-.02.65-.05.98-.07-1.24.97-2.53,1.89-3.88,2.77-1.94,1.26-3.87,2.54-5.79,3.85-1.39.11-2.8.15-4.2.11-1.96-.06-3.93-.25-5.84-.71-1.9-.46-3.79-1.09-5.47-2.12-1.67-1.04-3.11-2.43-4.18-4.12.98,1.73,2.37,3.21,4.03,4.35,1.67,1.12,3.56,1.86,5.48,2.42.4.12.81.21,1.22.31-.43.08-.86.17-1.29.28-1.16.32-2.28.82-3.28,1.5-1.01.66-1.88,1.53-2.53,2.54-.7.98-1.09,2.13-1.44,3.26.39-1.12.82-2.24,1.55-3.18.68-.97,1.56-1.78,2.56-2.39,1-.62,2.1-1.06,3.24-1.33.94-.22,1.92-.34,2.87-.35,1,.16,2.01.27,3.02.35.91.06,1.82.1,2.73.11-2.12,1.47-4.22,2.99-6.26,4.6-2.18,1.72-4.27,3.58-6.19,5.63-1.19,1.29-2.29,2.68-3.29,4.13-2.49,2.12-5.17,4.08-7.98,5.78-.82.33-1.91.45-2.91.44-1.06,0-2.14-.18-3.19-.43-1.06-.24-2.08-.62-3.1-1.01l-1.5-.67-1.46-.76,1.4.88,1.45.8c.99.49,2,.96,3.07,1.29,1.06.35,2.16.62,3.29.72.23.02.45.03.68.04-.42.23-.85.46-1.28.67-2.21,1.09-4.52,2.01-6.92,2.54-.35.07-.72.13-1.08.19l-.02-.03s-.03.03-.05.04c-2.05.36-4.17.64-6.24,1.05-.4.08-.79.16-1.19.25v-.02c-1.41.36-2.87.63-4.32.83-1.46.2-2.92.33-4.39.33-1.47,0-2.95-.07-4.38-.38-1.43-.31-2.85-.8-4.06-1.65,1.19.89,2.6,1.43,4.04,1.78,1.44.36,2.93.48,4.41.52,1.46.04,2.91-.04,4.36-.19-.57.22-1.14.46-1.69.74-2.29,1.15-4.19,3-5.48,5.16-.65,1.09-1.27,2.14-2.07,3.1-.8.94-1.73,1.78-2.75,2.49-2.05,1.4-4.48,2.28-6.97,2.47,2.5-.12,4.97-.94,7.08-2.32,1.05-.69,2.02-1.52,2.86-2.46.83-.94,1.51-2.05,2.17-3.08,1.32-2.09,3.19-3.82,5.42-4.86,2.22-1.05,4.67-1.57,7.12-1.98,1.58-.28,3.15-.46,4.74-.68-1.54,1.32-2.92,2.78-4.16,4.38-1.59,2.08-2.89,4.42-3.58,6.96-.34,1.27-.53,2.58-.52,3.9l.09,3.87.19,7.73.19-7.73c.11-2.58-.09-5.18.7-7.58.72-2.42,2.04-4.64,3.63-6.6,1.59-1.96,3.48-3.73,5.51-5.17l-.04-.06c.24-.04.47-.07.7-.11,2.51-.51,4.9-1.41,7.19-2.49,3.23-1.56,6.27-3.45,9.15-5.57-2.23,4.07-3.78,8.39-5.2,12.72-.58.87-1.49,1.7-2.42,2.36-1,.71-2.12,1.27-3.27,1.73-1.15.48-2.37.8-3.59,1.09l-1.86.34-1.88.22,1.89-.09,1.89-.21c1.25-.2,2.51-.44,3.72-.84,1.22-.39,2.42-.89,3.53-1.56.44-.27.86-.56,1.26-.88-1.52,4.81-3.28,9.56-5.84,13.91-1.59,1.03-3.24,2-4.93,2.88-.87.45-1.76.86-2.66,1.23-.91.36-1.85.67-2.83.73.99,0,1.95-.28,2.88-.6.93-.32,1.84-.7,2.74-1.11,1.45-.67,2.87-1.42,4.26-2.21-.03.04-.05.09-.08.13-1.41,2.33-3.03,4.54-4.88,6.54-.93.99-1.91,1.95-2.97,2.82-1.05.87-2.16,1.68-3.38,2.31,1.24-.58,2.39-1.36,3.47-2.2,1.09-.83,2.1-1.77,3.08-2.74,1.94-1.95,3.65-4.13,5.15-6.44,1.37-2.03,2.54-4.17,3.59-6.38-.09,1.82-.07,3.63.09,5.45.11,1.28.33,2.56.68,3.8.36,1.22.88,2.46,1.82,3.35-.89-.94-1.32-2.18-1.62-3.41-.28-1.24-.43-2.5-.47-3.77-.09-2.52.09-5.07.47-7.54.91-2.1,1.73-4.25,2.48-6.4,1.08-3,2.18-6,3.46-8.9,1.69,2.8,2.83,6.03,3.48,9.29.34,1.71.53,3.45.6,5.2-.58,1.89-1.36,3.78-2.42,5.48-.53.86-1.14,1.67-1.89,2.35-.74.68-1.62,1.23-2.63,1.43,1.02-.13,1.96-.63,2.77-1.27.81-.64,1.49-1.44,2.09-2.28.82-1.15,1.5-2.38,2.09-3.66-.03,1.32-.13,2.65-.31,3.96-.23,1.86-.75,3.7-.92,5.62-.2,1.9-.26,3.81-.21,5.71.05,1.9.2,3.8.45,5.69.13.94.28,1.88.47,2.81.21.92.37,1.88.83,2.72-.43-.85-.56-1.81-.74-2.73-.16-.93-.29-1.87-.38-2.82-.19-1.89-.29-3.78-.29-5.67s.11-3.78.37-5.65c.05-.45.13-.89.21-1.33.17.86.36,1.7.59,2.54.36,1.31.81,2.61,1.39,3.84.58,1.23,1.23,2.44,2.12,3.48.87,1.04,1.94,1.94,3.18,2.5-1.22-.6-2.24-1.53-3.07-2.58-.84-1.05-1.45-2.28-1.98-3.51-.53-1.24-.92-2.53-1.24-3.84-.31-1.28-.55-2.58-.69-3.88.2-.93.41-1.86.55-2.82.29-1.92.44-3.87.43-5.82,0-.02.02-.04.03-.06h-.03c-.02-1.87-.18-3.73-.51-5.57-.66-3.6-1.83-7.11-3.8-10.3.77-1.65,1.6-3.27,2.55-4.81.9-1.5,1.94-2.9,3.06-4.22-.09.67-.15,1.34-.2,2.02-.08,1.23-.12,2.47-.05,3.7.13,2.45.58,4.96,1.85,7.07-1.1-2.2-1.35-4.67-1.3-7.08.02-1.21.15-2.41.32-3.61.18-1.19.4-2.39.71-3.53h-.04c1.02-1.09,2.09-2.11,3.22-3.08-1.11,4.3-.36,8.86,1.29,12.8.14.32.29.63.44.95.28,1.56.45,3.18.54,4.79.09,1.71.09,3.42-.07,5.12-.18,1.7-.42,3.41-1,5.02-.56,1.61-1.36,3.16-2.53,4.45,1.23-1.22,2.13-2.74,2.78-4.35.67-1.61,1.01-3.33,1.28-5.05.26-1.72.35-3.47.35-5.21,0-.76-.03-1.51-.07-2.27.89,1.53,1.9,2.97,2.99,4.35h-.01c.71,1.86,1.15,3.92,1.33,5.95.18,2.04.05,4.11-.41,6.11-.2,1.01-.59,1.97-.94,2.93-.49.9-.89,1.87-1.53,2.68-1.12,1.75-2.71,3.14-4.33,4.45,1.67-1.23,3.33-2.56,4.55-4.29.69-.8,1.14-1.76,1.68-2.67.41-.97.85-1.94,1.1-2.97.57-2.04.79-4.18.7-6.3-.06-1.33-.23-2.63-.51-3.94,1.03,1.18,2.1,2.32,3.19,3.41,1.14,1.2,2.07,2.59,2.74,4.1h-.02c.04.08.07.16.11.23.34.82.61,1.66.78,2.54.55,2.58.29,5.29-.37,7.87-.68,2.58-1.78,5.05-3.11,7.38-1.34,2.33-2.88,4.55-4.64,6.58,1.82-1.98,3.43-4.16,4.84-6.47,1.4-2.3,2.58-4.77,3.35-7.38.7-2.44,1.04-5.05.67-7.61.51.89,1.06,1.76,1.65,2.6.63.9,1.32,1.77,2.1,2.55.78.77,1.65,1.49,2.68,1.87-1.01-.45-1.81-1.21-2.53-2.01-.72-.81-1.34-1.7-1.91-2.63-1.13-1.85-2.07-3.83-2.86-5.83l-.04.02c-.66-1.62-1.6-3.12-2.77-4.41-1.85-2.01-3.64-3.94-5.18-6.12-.34-.47-.66-.94-.97-1.42.85-.01,1.71.01,2.56.12,1.18.15,2.35.42,3.48.83,1.12.41,2.18,1.01,3.13,1.75.96.74,1.7,1.71,2.35,2.75-.57-1.07-1.25-2.12-2.17-2.95-.91-.83-1.96-1.53-3.09-2.04-1.14-.51-2.33-.88-3.55-1.13-1.1-.22-2.2-.34-3.34-.36-.86-1.43-1.62-2.91-2.23-4.45-.95-2.45-1.54-5.03-1.54-7.62,0-1.29.14-2.58.44-3.83.23-.96.57-1.94,1-2.79.38-.29.75-.58,1.14-.86,4.35-3.21,9-6.07,13.67-8.9.33-.2.65-.41.98-.61-.27.62-.52,1.26-.75,1.91-.75,2.24-1.12,4.6-1.06,6.96h-.01c-.39,1.04-.88,2.1-1.43,3.11-.55,1.01-1.16,1.99-1.87,2.89-.72.89-1.49,1.76-2.44,2.42-.94.66-2.01,1.16-3.17,1.33,1.17-.08,2.31-.49,3.32-1.1,1.03-.6,1.9-1.43,2.71-2.29.81-.87,1.52-1.83,2.16-2.82.31-.48.61-.97.89-1.47.1.7.22,1.38.35,2.03.2,1.16.25,2.35.18,3.55-.16,2.39-.74,4.77-1.66,7.02,1.08-2.17,1.86-4.52,2.21-6.96.17-1.22.22-2.47.09-3.71-.14-1.25-.33-2.37-.32-3.57-.02-2.36.45-4.71,1.29-6.91.55-1.43,1.28-2.82,2.13-4.09,1.13-.8,2.23-1.65,3.27-2.56,1.82-1.58,3.49-3.34,5.01-5.21-.08.59-.16,1.18-.2,1.78-.1,1.55-.03,3.11.2,4.64.24,1.53.74,3.01,1.39,4.4-.57-1.43-.97-2.92-1.12-4.44-.13-1.52-.12-3.05.07-4.56.13-1.01.34-2,.57-2.99,3.4-4.5,5.88-9.67,7.44-15.07.01-.05.03-.1.04-.15.97,3.38,2.09,6.71,3.46,10.01-.01.27-.01.53-.03.8-.1,1.48-.34,2.95-.76,4.37-.43,1.4-1.07,2.81-2.2,3.81,1.2-.93,1.94-2.32,2.46-3.72.49-1.33.81-2.72,1-4.12.05.11.09.22.13.33,1.57,3.38,1.71,7.56,1.39,11.79-.23.53-.47,1.05-.71,1.56-.9,1.85-1.92,3.65-3.06,5.38-.56.84-1.13,1.67-1.73,2.49l-.03-.04c-1.09.79-2.28,1.52-3.47,2.19-1.2.66-2.44,1.28-3.72,1.8-2.55,1.02-5.28,1.74-8.07,1.52,2.77.41,5.61-.13,8.26-1,1.33-.44,2.63-.98,3.9-1.58.5-.24.98-.49,1.47-.74-.1.13-.2.26-.3.38-1.31,1.61-2.74,3.13-4.13,4.7-1.31,1.49-2.59,3.01-3.81,4.58-2.26,2.16-4.64,4.22-7.17,6.08-1.3.95-2.65,1.85-4.07,2.6-.72.37-1.45.7-2.22.94-.77.23-1.58.38-2.38.22.79.18,1.62.06,2.4-.15.78-.22,1.53-.53,2.26-.89,1.46-.72,2.83-1.58,4.17-2.5,1.92-1.34,3.76-2.78,5.55-4.3-.8,1.14-1.57,2.3-2.26,3.52-1.03,1.83-1.88,3.78-2.42,5.82-.54,2.03-.77,4.14-.73,6.23.03-2.09.33-4.18.93-6.17.6-2,1.5-3.89,2.58-5.66,2.17-3.56,4.94-6.71,7.79-9.75,1.43-1.51,2.92-2.99,4.31-4.59,1.41-1.57,2.69-3.26,3.92-4.98.83-1.18,1.59-2.41,2.32-3.67-.49,3.57-1.23,7.15-2.13,10.69-.75,2.91-1.62,5.79-2.59,8.64-.33.45-.69.89-1.06,1.31-.55.61-1.13,1.2-1.77,1.72-1.26,1.05-2.76,1.91-4.46,1.98,1.7.12,3.37-.6,4.79-1.54.62-.41,1.2-.87,1.76-1.36-.32.88-.64,1.75-.98,2.61l-1.37,3.31c-.44,1.14-.87,2.29-1.25,3.43-.1.29-.19.57-.28.86-1.47,1.44-3.08,2.79-4.81,3.92-1,.66-2.06,1.24-3.18,1.64-1.12.41-2.33.67-3.53.47,1.19.29,2.45.11,3.62-.22,1.18-.33,2.31-.84,3.38-1.44,1.07-.59,2.11-1.25,3.1-1.97.29-.21.57-.43.85-.64-.45,1.4-.9,2.79-1.35,4.17-1.46,4.5-3.09,8.92-5.32,13.01-2.24,4.08-5.16,7.76-8.97,10.51-3.85,2.91-7.28,6.32-10.32,10.01-3.02,3.71-5.73,7.67-7.91,11.91,2.37-4.13,5.26-7.94,8.42-11.47,3.18-3.51,6.71-6.7,10.6-9.35,1.17-.76,2.27-1.62,3.32-2.55-.82,2.24-1.49,4.53-2.01,6.85-1.18,3.19-2.62,6.33-4.39,9.26-.89,1.48-1.89,2.9-3.05,4.18-1.16,1.26-2.49,2.45-4.13,3.08,1.66-.56,3.05-1.7,4.27-2.94,1.23-1.25,2.29-2.64,3.25-4.1,1.28-1.94,2.39-3.97,3.39-6.06-.21,1.51-.32,3.04-.28,4.57.05,2.06.4,4.16,1.3,6.06.45.95,1.12,1.79,1.71,2.58.6.81,1.17,1.65,1.69,2.51,1.05,1.72,1.96,3.54,2.61,5.45.65,1.91,1.04,3.92.98,5.95-.05,2.02-.6,4.04-1.67,5.77,1.12-1.7,1.73-3.73,1.83-5.77.12-2.05-.23-4.1-.84-6.05-.61-1.96-1.48-3.83-2.5-5.6-.51-.89-1.06-1.75-1.65-2.59-.6-.85-1.19-1.63-1.6-2.53-.81-1.8-1.11-3.81-1.12-5.81-.01-2,.25-4,.63-5.98.75-3.66,1.95-7.24,3.43-10.66,1.03-1.08,1.98-2.22,2.87-3.41-.02.83-.02,1.66,0,2.49.05,1.75.2,3.49.46,5.21.27,1.72.69,3.42,1.23,5.07.57,1.65,1.33,3.22,2.26,4.68-.85-1.51-1.52-3.11-2-4.76-.45-1.66-.78-3.35-.95-5.06-.17-1.71-.23-3.43-.19-5.14.04-1.38.15-2.77.33-4.13.26-.39.52-.79.76-1.19.93-1.53,1.76-3.12,2.54-4.73.22,2,.56,3.97,1.05,5.93.76,3.07,1.92,6.08,3.55,8.78,1.53,2.7,2.81,5.62,2.98,8.74.08,1.55-.17,3.11-.73,4.57-.56,1.46-1.38,2.81-2.32,4.06.98-1.22,1.85-2.55,2.46-4.01.62-1.45.92-3.04.89-4.63-.07-3.2-1.29-6.23-2.75-9.01-1.53-2.73-2.58-5.66-3.25-8.7-.56-2.48-.88-5.03-.99-7.56.98-2.17,1.87-4.37,2.7-6.57.86-2.24,1.67-4.48,2.53-6.66.42-1.1.88-2.17,1.35-3.22l.73-1.56c1.14,3.68,2.41,7.28,3.8,10.86,0,.04.01.08.01.13.16,1.93.21,3.88.12,5.82,0,.13-.02.26-.02.39-.17,1.09-.29,2.19-.37,3.29-.12.69-.27,1.38-.47,2.06-.54,1.85-1.36,3.68-2.81,5.03,1.51-1.28,2.44-3.1,3.07-4.95.04-.1.06-.21.09-.32-.06,1.45-.05,2.9.06,4.34.12,1.65.37,3.31.88,4.89.5,1.57,1.25,3.11,2.43,4.28-1.15-1.21-1.84-2.75-2.3-4.32-.47-1.58-.67-3.23-.74-4.87-.08-1.64-.04-3.29.09-4.93.05-.59.12-1.17.19-1.75.17-.85.29-1.72.38-2.58.03-.18.05-.37.09-.55h-.03c.12-1.3.16-2.59.16-3.89,1.67,4.07,3.53,8.08,5.69,11.94.08,1.08.13,2.17.15,3.26.03,1.72-.04,3.43-.21,5.14-.16,1.71-.46,3.41-.98,5.04-.52,1.62-1.25,3.23-2.49,4.46,1.3-1.16,2.14-2.75,2.75-4.37.62-1.63,1.01-3.34,1.27-5.06.26-1.72.43-3.46.49-5.2.02-.51.02-1.01.02-1.52,1,1.68,2.06,3.33,3.21,4.92.76,2.96,1.02,6.11.52,9.12-.3,1.85-.95,3.65-1.94,5.23-.99,1.59-2.32,2.97-3.89,4.03-1.54,1.1-3.33,1.77-5.08,2.63-1.73.87-3.4,1.89-4.82,3.22-1.42,1.31-2.58,3-2.95,4.92-.36,1.91.08,3.94,1.14,5.54-1.01-1.63-1.4-3.65-.99-5.51.41-1.87,1.58-3.48,3-4.73,1.42-1.27,3.09-2.23,4.82-3.04,1.72-.79,3.59-1.44,5.21-2.55,1.65-1.06,3.07-2.48,4.16-4.13.64-.98,1.14-2.04,1.53-3.15.25,1.01.46,2.04.6,3.08.2,1.51.29,3.04.24,4.57-.03,1.53-.26,3.05-.62,4.53-.36,1.49-.98,2.91-1.72,4.26.8-1.32,1.48-2.71,1.91-4.2.43-1.49.73-3.02.83-4.57.11-1.55.09-3.11-.04-4.66-.14-1.53-.37-3.03-.76-4.54.06-.26.14-.53.19-.79.45-2.45.45-4.94.09-7.39.28.35.56.7.86,1.04.46.52.93,1.06,1.32,1.54.85.95,1.51,2.05,2.14,3.16,1.16,2.28,1.86,4.81,2.14,7.41.27,2.6.17,5.26-.17,7.89-.33,2.5-.88,4.96-1.58,7.4-1.53,2.51-3.44,4.83-5.54,6.93-.77.25-1.61.43-2.44.54-.9.11-1.8.16-2.71.11-1.82-.07-3.63-.48-5.34-1.16,1.65.81,3.45,1.36,5.3,1.57.93.12,1.86.14,2.8.09.45-.03.89-.07,1.33-.13-.23.22-.46.43-.69.65-3.06,2.69-6.5,4.96-10.21,6.67-1.86.82-3.79,1.54-5.71,2.32-1.87.87-3.74,1.78-5.43,2.98-1.7,1.17-3.28,2.54-4.53,4.19-1.23,1.64-2.24,3.55-2.38,5.62.19-2.06,1.23-3.94,2.49-5.53,1.28-1.6,2.88-2.93,4.58-4.05,1.69-1.16,3.57-2.01,5.44-2.83,1.91-.72,3.86-1.4,5.77-2.2,3.8-1.65,7.35-3.87,10.53-6.55,2.09-1.81,4.01-3.79,5.72-5.97-.55,1.6-1.15,3.18-1.8,4.74-2.08,4.96-4.64,9.73-7.58,14.25-3.2,4.43-5.18,9.71-6.09,15.06-.9,5.37-.98,10.86-.2,16.23-.64-5.38-.42-10.86.61-16.15,1.05-5.29,3.1-10.38,6.37-14.67,1.58-2.3,3.06-4.67,4.43-7.1.21,2.62.47,5.22.84,7.82.48,3.19,1.02,6.39,2.1,9.48,1.22,2.94,1.22,6.25.43,9.33-.4,1.54-.99,3.04-1.8,4.43-.81,1.37-1.82,2.68-3.2,3.52,1.41-.79,2.47-2.08,3.34-3.44.86-1.37,1.51-2.87,1.97-4.42.91-3.09,1.03-6.54-.14-9.62-.98-3.02-1.44-6.21-1.83-9.38-.37-3.14-.61-6.31-.75-9.46.94-1.76,1.84-3.54,2.67-5.36.9-2.02,1.74-4.08,2.47-6.18.19,1.09.4,2.18.64,3.27.45,1.98.98,3.94,1.65,5.85.67,1.91,1.47,3.79,2.54,5.52,1.07,1.7,2.43,3.34,4.28,4.2-1.81-.94-3.07-2.61-4.04-4.33-.97-1.75-1.68-3.63-2.26-5.55-1.08-3.64-1.72-7.43-2.08-11.19.73-2.36,1.33-4.77,1.72-7.24.01-.08.02-.16.03-.23.35,1.24.77,2.45,1.3,3.62.66,1.43,1.51,2.77,2.49,3.99.99,1.22,2.22,2.22,3.52,3.07-1.25-.92-2.4-1.98-3.3-3.24-.9-1.25-1.64-2.61-2.2-4.04-.55-1.43-.97-2.92-1.25-4.42-.1-.53-.18-1.06-.25-1.59.16-1.81.2-3.64.06-5.48-.13-1.57-.43-3.15-.86-4.69,2.52,2.13,4.89,4.46,6.98,7,1.34,1.64,2.56,3.37,3.52,5.25.46.91.9,1.97,1.58,2.85.66.89,1.47,1.66,2.38,2.28.77.53,1.6.95,2.46,1.32-1.04.77-2.01,1.64-2.83,2.64-1.19,1.43-2.08,3.12-2.52,4.93-.87,3.64,0,7.49,1.79,10.67-1.72-3.22-2.46-7.07-1.52-10.6.81-3.12,3.01-5.62,5.63-7.4.98.38,1.98.68,2.98.94,2.09.53,4.2.87,6.27,1.39,1.03.27,2.05.57,2.99,1.06.93.49,1.77,1.18,2.53,1.91,1.5,1.48,2.66,3.41,2.95,5.54-.24-2.14-1.36-4.11-2.84-5.65-.76-.76-1.58-1.47-2.53-2-.95-.53-1.99-.86-3.02-1.15-2.07-.58-4.18-.97-6.23-1.54-.86-.24-1.71-.52-2.54-.85.2-.12.39-.25.59-.37,3.18-1.78,6.42-3.89,8.49-7.11,1.03-1.59,1.67-3.47,1.78-5.39.13-1.92-.26-3.81-.61-5.58-.07-.37-.11-.7-.15-1.05.59.39,1.17.81,1.71,1.27.96.82,1.83,1.75,2.57,2.77.76,1.02,1.37,2.14,1.81,3.34.49,1.19.71,2.46.87,3.74-.08-1.28-.2-2.59-.61-3.83-.36-1.25-.91-2.45-1.62-3.56-.7-1.11-1.53-2.15-2.47-3.07-.79-.76-1.62-1.45-2.56-2.06-.04-.11-.07-.23-.11-.34-.33-.9-.72-1.75-1.12-2.58-.8-1.67-1.62-3.3-2.36-4.96-.47-1.04-.91-2.1-1.3-3.16,0,0,.01.01.02.02.77.63,1.59,1.18,2.48,1.62.88.44,1.79.81,2.74,1.04.94.26,1.91.38,2.87.45-.95-.17-1.89-.37-2.78-.71-.9-.31-1.75-.76-2.55-1.25-.8-.5-1.53-1.1-2.2-1.76-.45-.44-.87-.94-1.23-1.44-.48-1.66-.78-3.36-.68-5,.05-.84.22-1.66.53-2.4.29-.66.86-1.61,1.18-2.51.7-1.84,1.01-3.77,1.09-5.68.09-2.75-.21-5.43-.82-8.08,2.38,2.1,4.4,4.6,5.67,7.51.84,1.86,1.35,3.85,1.86,5.9.45,1.85,1.17,3.64,2.02,5.34l-.04.02c1.24,3.08,2.31,6.26,3.11,9.5.39,1.62.7,3.27.82,4.93.05.83.05,1.67-.06,2.49-.12.82-.37,1.65-.91,2.29.58-.62.88-1.45,1.05-2.27.17-.83.21-1.68.2-2.52-.03-1.69-.26-3.37-.56-5.03-.35-1.88-.8-3.73-1.32-5.56,1.72,2.48,3.78,4.72,6.19,6.52,3.39,2.57,7.52,4.12,11.72,4.4-4.19-.46-8.19-2.15-11.41-4.79-3.24-2.63-5.77-6.05-7.57-9.77-.05-.11-.1-.22-.15-.32-.03-.08-.05-.17-.08-.25h-.03c-.77-1.69-1.4-3.43-1.77-5.25-.06-.28-.12-.57-.18-.85,2.33,1.98,4.99,3.47,7.83,4.53.27.1.54.18.81.27,1.7.74,3.36,1.56,4.95,2.5,1.23.72,2.39,1.54,3.46,2.47,1.05.94,2.05,2.03,2.45,3.42-.33-1.41-1.29-2.58-2.31-3.57-1.03-1-2.18-1.89-3.38-2.67-.74-.48-1.49-.93-2.26-1.37,2.34.49,4.74.66,7.12.51,3.7-.15,7.15-1.49,10.76-1.63,1.78-.08,3.65-.03,5.27.78.79.4,1.48,1.05,1.83,1.88.35.83.39,1.78.18,2.66.24-.87.22-1.83-.11-2.69-.33-.86-1.02-1.56-1.83-1.99ZM122.21,109.27c2.45,2.37,4.69,5.09,6.25,8.12.81,1.61,1.41,3.35,1.46,5.13.06,1.77-.57,3.53-1.77,4.86-.58.68-1.29,1.23-2.04,1.77,0,0-.01,0-.02.01-.36-.19-.73-.38-1.09-.58-3.56-2.02-6.89-4.43-9.62-7.34-1.37-1.45-2.57-3.03-3.54-4.71-.48-.84-.9-1.71-1.24-2.59-.15-.39-.27-.79-.39-1.18.07-.43.15-.85.22-1.28.36-2.45.54-4.95.5-7.53l-.11-1.95c-.04-.61-.17-1.24-.27-1.86.73.71,1.46,1.41,2.21,2.1,2.91,2.61,5.99,5.09,9.44,7.03ZM113.35,62.94c.77.96,1.58,1.89,2.5,2.73.98.89,1.98,1.63,2.99,2.36.54,2.2.88,4.49.92,6.77.02,1.26-.08,2.52-.33,3.74-.11.64-.31,1.16-.49,1.85-.16.66-.2,1.34-.17,2,.16,2.66,1.24,5.08,2.45,7.35.64,1.15,1.33,2.27,2.08,3.34-2.17-1.39-3.91-3.38-5.22-5.6.07.04.14.08.21.11-.08-.05-.15-.1-.23-.14-.28-.48-.55-.97-.8-1.47-1.69-3.44-2.63-7.21-3.2-11.01-.37-2.53-.57-5.09-.65-7.66.23.86.45,1.72.64,2.6.18.86.35,1.73.44,2.6.08.87.13,1.77-.15,2.61.33-.83.33-1.74.29-2.62-.04-.89-.16-1.77-.3-2.64-.23-1.4-.54-2.79-.87-4.17.01-.08.03-.15.04-.22h-.09s-.02-.09-.03-.14c0-.63-.02-1.27-.01-1.9,0-.16,0-.32.01-.48ZM106.64,41.83c.89-4.96,1.59-9.88,2.19-14.8.33.7.64,1.42.91,2.16,1.23,3.41,1.85,7.14,2.08,10.91.12,1.89.11,3.8.06,5.71-.05,1.89-.28,3.89-.37,5.84-.07,1.25-.12,2.51-.17,3.77-.43-.91-.85-1.84-1.23-2.78-1.41-3.46-2.56-7.06-3.49-10.7l.02-.11ZM103.37,66.24c-.17-3.61-.11-7.2.32-10.68.11-1.1.35-2.16.52-3.24.23-1.07.51-2.06.77-3.14.13-.52.27-1.04.4-1.56.73,2.03,1.53,4.05,2.44,6.02.88,1.94,1.88,3.84,3.01,5.67.16.44.31.88.46,1.32,0,.94.03,1.88.06,2.82.02.63.06,1.27.1,1.9h-.13c.03,1.06,0,2.19-.05,3.29-.05,1.1-.14,2.21-.28,3.31-.14,1.1-.31,2.19-.59,3.27-.28,1.07-.62,2.14-1.19,3.11.72-.87,1.24-1.89,1.7-2.93.46-1.04.82-2.13,1.14-3.22,0-.02.01-.05.02-.07.15,1.04.31,2.08.51,3.12.74,3.83,1.86,7.63,3.73,11.1-1.66-1.16-3.19-2.49-4.55-4-1.83-2.12-3.4-4.44-4.72-6.89-1.28-2.48-2.35-5.06-3.21-7.7-.16-.49-.3-.98-.45-1.48ZM105.59,82.8c-.79-3.68-1.39-7.39-1.8-11.1.7,1.45,1.46,2.88,2.29,4.26,1.52,2.43,3.27,4.7,5.27,6.73,1.54,1.51,3.26,2.81,5.1,3.9,1.75,3.17,4.33,6.03,7.65,7.57.49.64,1,1.27,1.55,1.87-.49-.58-.95-1.18-1.39-1.79.2.09.4.19.6.27,1.85.73,3.86,1.03,5.82.88.98-.07,1.96-.26,2.89-.57.46-.16.92-.35,1.34-.6.21-.12.42-.26.6-.43.17-.17.36-.37.34-.63.01.25-.18.45-.36.6-.19.16-.39.28-.61.4-.43.23-.89.4-1.35.53-.93.27-1.9.41-2.86.44-1.93.06-3.87-.32-5.61-1.09-.5-.22-.98-.48-1.45-.76-.78-1.19-1.5-2.42-2.14-3.68-1.11-2.28-2.07-4.73-2.12-7.23,0-.62.06-1.24.22-1.82.17-.55.43-1.23.56-1.85.31-1.28.45-2.59.47-3.9.02-1.97-.14-3.92-.48-5.86,3.6,2.55,7.29,4.94,10.73,7.61.61.74,1.15,1.65,1.56,2.58.43.97.74,2,.9,3.06.16,1.06.22,2.14.08,3.22-.09,1.08-.38,2.14-.71,3.18.41-1.01.8-2.05.98-3.14.23-1.08.26-2.21.19-3.32-.07-1.12-.31-2.23-.68-3.29-.07-.2-.15-.4-.22-.59.6.51,1.2,1.04,1.78,1.58,2.27,2.12,4.32,4.5,5.8,7.24,1.42,2.59,2.24,5.52,2.38,8.5-.93.06-1.85.15-2.77.28-.94.12-1.88.32-2.79.6-.45.15-.91.31-1.33.57-.35.24-.79.51-.87,1.06l-2.28,1.44c-.8.42-1.58.87-2.39,1.27-1.64.74-3.3,1.45-5.05,1.84-1.73.42-3.52.66-5.28.58-1.12-.05-2.27-.23-3.34-.55-.77-.72-1.53-1.46-2.27-2.21-2.09-2.14-4.09-4.42-5.95-6.76-1.2-3.52-2.17-7.19-2.96-10.86ZM146.29,156.78c-.28.84-.67,1.47-1.1,2.5-.38.96-.55,1.97-.58,2.96,0,.03,0,.05,0,.08-.37.89-.78,1.76-1.27,2.58-.56.98-1.23,1.9-2.06,2.67-.82.76-1.83,1.37-2.97,1.56,1.16-.09,2.24-.63,3.15-1.35.92-.72,1.69-1.62,2.35-2.58.3-.44.59-.89.86-1.35.13,1.41.45,2.77.87,4.08.58,1.8,1.33,3.52,2.13,5.19.52,1.09,1.08,2.16,1.63,3.23.05,1.32,0,2.69-.15,4.03-.17,1.46-.43,2.92-.89,4.32-.46,1.4-1.06,2.76-1.92,3.97-.87,1.19-2,2.2-3.31,2.92,1.35-.64,2.56-1.59,3.53-2.76.95-1.18,1.65-2.54,2.21-3.95.56-1.41.92-2.89,1.19-4.39.13-.75.23-1.5.31-2.26.38.75.75,1.5,1.04,2.25.06.15.11.31.16.46l-.03.05s.04.02.06.03c.07.22.12.43.15.63.05.44.13.97.22,1.41.4,1.81.8,3.55.73,5.32-.06,1.76-.59,3.48-1.51,4.99-1.87,3.07-4.93,5.21-8.07,7.07-.31.19-.6.4-.9.61-.92-.4-1.8-.87-2.6-1.45-.84-.61-1.59-1.35-2.18-2.19-.61-.84-.97-1.79-1.46-2.79-.96-1.96-2.18-3.76-3.52-5.45-2.46-3.07-5.25-5.82-8.28-8.34-.21-.54-.42-1.08-.67-1.6-.66-1.26-1.38-2.52-2.31-3.62-.46-.59-.87-1.07-1.29-1.58-.42-.5-.81-1.04-1.21-1.56-.73-.99-1.41-2.01-2.07-3.05.62.14,1.25.32,1.85.52,1.27.42,2.5.94,3.7,1.54,2.41,1.18,4.69,2.67,6.83,4.3,2.13,1.65,4.08,3.55,5.67,5.74,1.57,2.19,2.88,4.63,3.47,7.29-.5-2.68-1.73-5.18-3.25-7.44-1.53-2.27-3.44-4.27-5.55-6.01-2.12-1.73-4.37-3.31-6.8-4.6-1.21-.66-2.46-1.24-3.76-1.71-.95-.34-1.89-.64-2.91-.83-.49-.81-.97-1.64-1.43-2.47-2.56-4.68-4.67-9.62-6.52-14.66-.33-.89-.64-1.8-.95-2.7.12.11.23.22.35.33.99.87,2.02,1.69,3.07,2.47.32.68.67,1.33,1.05,1.97.47.79.99,1.55,1.55,2.27,1.12,1.45,2.44,2.75,3.97,3.71-1.43-1.12-2.58-2.51-3.52-4.02-.47-.76-.9-1.54-1.28-2.34-.07-.15-.13-.3-.2-.46.12.08.24.18.36.26,1.76,1.15,3.65,2.18,5.71,2.73,1.03.27,2.11.4,3.16.24,1.05-.15,2.05-.63,2.81-1.33-.83.63-1.83,1.01-2.84,1.06-1.02.06-2.02-.15-2.98-.49-1.91-.69-3.63-1.83-5.23-3.09-1.6-1.27-3.09-2.68-4.51-4.16-.98-1.03-1.93-2.12-2.83-3.22-.83-2.62-1.58-5.25-2.25-7.88.83-1.98,1.59-3.99,2.3-6.01,1.22,3.18,2.75,6.23,4.63,9.08,1.32,1.97,2.82,3.84,4.59,5.44,1.76,1.6,3.8,2.94,6.07,3.73,1.12.37,2.16.79,3.09,1.48.92.67,1.71,1.52,2.31,2.5,1.23,1.95,1.79,4.27,2.02,6.58.42,4.66-.27,9.38-1.48,13.9,1.3-4.5,2.1-9.21,1.78-13.92-.19-2.34-.7-4.73-1.94-6.8-.61-1.03-1.42-1.96-2.38-2.69-.95-.75-2.1-1.24-3.2-1.62-4.35-1.62-7.67-5.19-10.16-9.06-2.01-3.17-3.59-6.63-4.79-10.18.35-1.03.69-2.06,1.01-3.1.7-2.29,1.34-4.6,1.9-6.95.82,1.26,1.73,2.43,2.71,3.53-.25,1.16-.41,2.32-.51,3.49-.1,1.44-.12,2.89.07,4.33.19,1.43.55,2.84,1.13,4.16.62,1.3,1.5,2.46,2.56,3.41-1-1.02-1.78-2.21-2.31-3.52-.48-1.32-.74-2.71-.83-4.11-.05-.84-.03-1.68.03-2.52.14.41.29.83.46,1.23.44,1.04.98,2.05,1.67,2.95.68.9,1.56,1.73,2.67,2.06,1.11.36,2.27.11,3.28-.33-1.04.38-2.19.54-3.21.14-1.03-.38-1.81-1.21-2.4-2.11-1.17-1.78-1.83-3.88-2.23-5.96.12-.79.29-1.57.48-2.34.12.12.24.25.36.38,3.15,3.12,6.82,5.56,10.64,7.56.05.03.11.05.16.08-1.19,1.32-2.09,2.95-2.37,4.71-.32,1.87.01,3.78.7,5.5.69,1.73,1.71,3.32,2.93,4.7-1.19-1.42-2.15-3.03-2.78-4.75-.63-1.72-.9-3.6-.53-5.39.33-1.74,1.28-3.29,2.5-4.55,1.72.87,3.48,1.67,5.26,2.39,2.01.8,3.95,1.45,5.85,2.25.6,1.18,1.07,2.45,1.33,3.78-.41,1.79-1.02,3.57-1.95,5.16-.57.97-1.29,1.88-2.25,2.48-.95.62-2.12.83-3.27.66,1.13.26,2.36.15,3.41-.42,1.06-.55,1.9-1.45,2.57-2.42.68-.97,1.23-2.02,1.69-3.1.02-.04.03-.08.04-.12.05,1.71-.23,3.41-.98,4.95-.42.9-.98,1.74-1.64,2.51-.34.4-.66.69-1.09,1.2-.39.47-.7.97-.98,1.48-1.06,2.06-1.5,4.25-1.77,6.43-.48,4.37-.05,8.77,1.13,12.95,1.19,4.16,3.27,8.15,6.48,11.05-3.07-3.05-4.92-7.08-5.89-11.21-.96-4.14-1.17-8.48-.52-12.64.35-2.06.89-4.13,1.9-5.86.5-.9,1.13-1.43,1.98-2.32.22-.24.41-.5.61-.76-.05,1.22,0,2.45.21,3.66.22,1.24.54,2.48,1.19,3.57.63,1.09,1.55,2,2.64,2.59-1.04-.68-1.86-1.63-2.39-2.72-.55-1.09-.77-2.31-.89-3.51-.11-1.21-.07-2.43.07-3.64.06-.49.14-.99.22-1.48.1-.18.23-.34.32-.53,1.07-2.06,1.5-4.44,1.34-6.73-.1-1.31-.35-2.56-.73-3.79,2.57,1.18,5.03,2.55,7.33,4.15,1.1,3.24,1.78,6.79,1.73,10.22-.03,1.76-.28,3.5-.86,5.11Z"/>
</svg>